<?xml version="1.0" encoding="utf-8" standalone="no"?>
<!DOCTYPE svg PUBLIC "-//W3C//DTD SVG 1.1//EN"
  "http://www.w3.org/Graphics/SVG/1.1/DTD/svg11.dtd">
<!-- Created with matplotlib (https://matplotlib.org/) -->
<svg height="288pt" version="1.1" viewBox="0 0 432 288" width="432pt" xmlns="http://www.w3.org/2000/svg" xmlns:xlink="http://www.w3.org/1999/xlink">
 <defs>
  <style type="text/css">
*{stroke-linecap:butt;stroke-linejoin:round;}
  </style>
 </defs>
 <g id="figure_1">
  <g id="patch_1">
   <path d="M 0 288 
L 432 288 
L 432 0 
L 0 0 
z
" style="fill:#ffffff;"/>
  </g>
  <g id="axes_1">
   <g id="patch_2">
    <path d="M 54 252 
L 388.8 252 
L 388.8 34.56 
L 54 34.56 
z
" style="fill:#ffffff;"/>
   </g>
   <g id="PathCollection_1">
    <path clip-path="url(#p1253943258)" d="M 342.300243 160.73867 
C 342.984125 160.73867 343.640089 160.466961 344.123667 159.983383 
C 344.607244 159.499806 344.878953 158.843842 344.878953 158.15996 
C 344.878953 157.476078 344.607244 156.820114 344.123667 156.336536 
C 343.640089 155.852959 342.984125 155.581249 342.300243 155.581249 
C 341.616361 155.581249 340.960397 155.852959 340.47682 156.336536 
C 339.993242 156.820114 339.721533 157.476078 339.721533 158.15996 
C 339.721533 158.843842 339.993242 159.499806 340.47682 159.983383 
C 340.960397 160.466961 341.616361 160.73867 342.300243 160.73867 
z
" style="fill:#1f77b4;stroke:#ffffff;stroke-width:0.75;"/>
    <path clip-path="url(#p1253943258)" d="M 342.13128 134.664783 
C 342.823169 134.664783 343.486814 134.389893 343.976054 133.900653 
C 344.465294 133.411413 344.740184 132.747768 344.740184 132.055879 
C 344.740184 131.363989 344.465294 130.700344 343.976054 130.211104 
C 343.486814 129.721864 342.823169 129.446974 342.13128 129.446974 
C 341.43939 129.446974 340.775745 129.721864 340.286505 130.211104 
C 339.797266 130.700344 339.522375 131.363989 339.522375 132.055879 
C 339.522375 132.747768 339.797266 133.411413 340.286505 133.900653 
C 340.775745 134.389893 341.43939 134.664783 342.13128 134.664783 
z
" style="fill:#ff7f0e;stroke:#ffffff;stroke-width:0.75;"/>
    <path clip-path="url(#p1253943258)" d="M 340.181722 223.061343 
C 340.707791 223.061343 341.212383 222.852334 341.58437 222.480348 
C 341.956356 222.108361 342.165366 221.603768 342.165366 221.0777 
C 342.165366 220.551632 341.956356 220.047039 341.58437 219.675053 
C 341.212383 219.303066 340.707791 219.094057 340.181722 219.094057 
C 339.655654 219.094057 339.151061 219.303066 338.779075 219.675053 
C 338.407088 220.047039 338.198079 220.551632 338.198079 221.0777 
C 338.198079 221.603768 338.407088 222.108361 338.779075 222.480348 
C 339.151061 222.852334 339.655654 223.061343 340.181722 223.061343 
z
" style="fill:#2ca02c;stroke:#ffffff;stroke-width:0.75;"/>
    <path clip-path="url(#p1253943258)" d="M 199.774863 110.271157 
C 200.394422 110.271157 200.988689 110.025003 201.426783 109.586909 
C 201.864877 109.148815 202.11103 108.554548 202.11103 107.93499 
C 202.11103 107.315431 201.864877 106.721164 201.426783 106.28307 
C 200.988689 105.844976 200.394422 105.598823 199.774863 105.598823 
C 199.155305 105.598823 198.561038 105.844976 198.122944 106.28307 
C 197.68485 106.721164 197.438697 107.315431 197.438697 107.93499 
C 197.438697 108.554548 197.68485 109.148815 198.122944 109.586909 
C 198.561038 110.025003 199.155305 110.271157 199.774863 110.271157 
z
" style="fill:#d62728;stroke:#ffffff;stroke-width:0.75;"/>
    <path clip-path="url(#p1253943258)" d="M 319.966819 137.323558 
C 320.519428 137.323558 321.049478 137.104004 321.440231 136.713251 
C 321.830985 136.322497 322.050538 135.792447 322.050538 135.239838 
C 322.050538 134.68723 321.830985 134.15718 321.440231 133.766426 
C 321.049478 133.375673 320.519428 133.156119 319.966819 133.156119 
C 319.41421 133.156119 318.88416 133.375673 318.493407 133.766426 
C 318.102653 134.15718 317.8831 134.68723 317.8831 135.239838 
C 317.8831 135.792447 318.102653 136.322497 318.493407 136.713251 
C 318.88416 137.104004 319.41421 137.323558 319.966819 137.323558 
z
" style="fill:#9467bd;stroke:#ffffff;stroke-width:0.75;"/>
    <path clip-path="url(#p1253943258)" d="M 280.961018 196.557489 
C 281.480659 196.557489 281.979088 196.351033 282.34653 195.983591 
C 282.713972 195.616148 282.920428 195.11772 282.920428 194.598078 
C 282.920428 194.078436 282.713972 193.580008 282.34653 193.212566 
C 281.979088 192.845123 281.480659 192.638668 280.961018 192.638668 
C 280.441376 192.638668 279.942947 192.845123 279.575505 193.212566 
C 279.208063 193.580008 279.001607 194.078436 279.001607 194.598078 
C 279.001607 195.11772 279.208063 195.616148 279.575505 195.983591 
C 279.942947 196.351033 280.441376 196.557489 280.961018 196.557489 
z
" style="fill:#2ca02c;stroke:#ffffff;stroke-width:0.75;"/>
    <path clip-path="url(#p1253943258)" d="M 326.700945 151.190922 
C 327.724098 151.190922 328.705484 150.784419 329.428963 150.06094 
C 330.152442 149.337461 330.558945 148.356076 330.558945 147.332922 
C 330.558945 146.309769 330.152442 145.328383 329.428963 144.604904 
C 328.705484 143.881426 327.724098 143.474922 326.700945 143.474922 
C 325.677791 143.474922 324.696406 143.881426 323.972927 144.604904 
C 323.249448 145.328383 322.842945 146.309769 322.842945 147.332922 
C 322.842945 148.356076 323.249448 149.337461 323.972927 150.06094 
C 324.696406 150.784419 325.677791 151.190922 326.700945 151.190922 
z
" style="fill:#2ca02c;stroke:#ffffff;stroke-width:0.75;"/>
    <path clip-path="url(#p1253943258)" d="M 361.196076 244.053015 
C 361.709682 244.053015 362.202321 243.848957 362.565495 243.485783 
C 362.928669 243.122609 363.132727 242.62997 363.132727 242.116364 
C 363.132727 241.602758 362.928669 241.110118 362.565495 240.746944 
C 362.202321 240.38377 361.709682 240.179712 361.196076 240.179712 
C 360.68247 240.179712 360.18983 240.38377 359.826656 240.746944 
C 359.463482 241.110118 359.259424 241.602758 359.259424 242.116364 
C 359.259424 242.62997 359.463482 243.122609 359.826656 243.485783 
C 360.18983 243.848957 360.68247 244.053015 361.196076 244.053015 
z
" style="fill:#8c564b;stroke:#ffffff;stroke-width:0.75;"/>
    <path clip-path="url(#p1253943258)" d="M 288.468322 185.776076 
C 289.023752 185.776076 289.556508 185.555401 289.949256 185.162653 
C 290.342004 184.769904 290.562679 184.237149 290.562679 183.681719 
C 290.562679 183.126289 290.342004 182.593533 289.949256 182.200785 
C 289.556508 181.808036 289.023752 181.587362 288.468322 181.587362 
C 287.912892 181.587362 287.380136 181.808036 286.987388 182.200785 
C 286.59464 182.593533 286.373965 183.126289 286.373965 183.681719 
C 286.373965 184.237149 286.59464 184.769904 286.987388 185.162653 
C 287.380136 185.555401 287.912892 185.776076 288.468322 185.776076 
z
" style="fill:#9467bd;stroke:#ffffff;stroke-width:0.75;"/>
    <path clip-path="url(#p1253943258)" d="M 250.396757 133.150175 
C 250.960656 133.150175 251.501534 132.926136 251.900271 132.5274 
C 252.299007 132.128663 252.523046 131.587785 252.523046 131.023887 
C 252.523046 130.459988 252.299007 129.91911 251.900271 129.520374 
C 251.501534 129.121637 250.960656 128.897598 250.396757 128.897598 
C 249.832859 128.897598 249.291981 129.121637 248.893244 129.520374 
C 248.494508 129.91911 248.270469 130.459988 248.270469 131.023887 
C 248.270469 131.587785 248.494508 132.128663 248.893244 132.5274 
C 249.291981 132.926136 249.832859 133.150175 250.396757 133.150175 
z
" style="fill:#9467bd;stroke:#ffffff;stroke-width:0.75;"/>
    <path clip-path="url(#p1253943258)" d="M 338.413307 195.169365 
C 338.97686 195.169365 339.517407 194.945463 339.915899 194.546971 
C 340.314391 194.148479 340.538293 193.607932 340.538293 193.044379 
C 340.538293 192.480826 340.314391 191.940279 339.915899 191.541787 
C 339.517407 191.143295 338.97686 190.919393 338.413307 190.919393 
C 337.849754 190.919393 337.309207 191.143295 336.910715 191.541787 
C 336.512223 191.940279 336.288321 192.480826 336.288321 193.044379 
C 336.288321 193.607932 336.512223 194.148479 336.910715 194.546971 
C 337.309207 194.945463 337.849754 195.169365 338.413307 195.169365 
z
" style="fill:#ff7f0e;stroke:#ffffff;stroke-width:0.75;"/>
    <path clip-path="url(#p1253943258)" d="M 315.169795 105.805733 
C 316.301498 105.805733 317.387001 105.356103 318.187235 104.555868 
C 318.987469 103.755634 319.437099 102.670131 319.437099 101.538429 
C 319.437099 100.406727 318.987469 99.321224 318.187235 98.520989 
C 317.387001 97.720755 316.301498 97.271125 315.169795 97.271125 
C 314.038093 97.271125 312.95259 97.720755 312.152356 98.520989 
C 311.352122 99.321224 310.902491 100.406727 310.902491 101.538429 
C 310.902491 102.670131 311.352122 103.755634 312.152356 104.555868 
C 312.95259 105.356103 314.038093 105.805733 315.169795 105.805733 
z
" style="fill:#ff7f0e;stroke:#ffffff;stroke-width:0.75;"/>
    <path clip-path="url(#p1253943258)" d="M 268.887304 106.179634 
C 269.552553 106.179634 270.190645 105.915328 270.661048 105.444925 
C 271.13145 104.974523 271.395757 104.336431 271.395757 103.671181 
C 271.395757 103.005932 271.13145 102.367839 270.661048 101.897437 
C 270.190645 101.427034 269.552553 101.162728 268.887304 101.162728 
C 268.222054 101.162728 267.583962 101.427034 267.11356 101.897437 
C 266.643157 102.367839 266.378851 103.005932 266.378851 103.671181 
C 266.378851 104.336431 266.643157 104.974523 267.11356 105.444925 
C 267.583962 105.915328 268.222054 106.179634 268.887304 106.179634 
z
" style="fill:#8c564b;stroke:#ffffff;stroke-width:0.75;"/>
    <path clip-path="url(#p1253943258)" d="M 69.367838 64.228256 
C 72.019869 64.228256 74.563636 63.174593 76.438905 61.299324 
C 78.314174 59.424055 79.367838 56.880287 79.367838 54.228256 
C 79.367838 51.576225 78.314174 49.032457 76.438905 47.157188 
C 74.563636 45.281919 72.019869 44.228256 69.367838 44.228256 
C 66.715807 44.228256 64.172039 45.281919 62.29677 47.157188 
C 60.421501 49.032457 59.367838 51.576225 59.367838 54.228256 
C 59.367838 56.880287 60.421501 59.424055 62.29677 61.299324 
C 64.172039 63.174593 66.715807 64.228256 69.367838 64.228256 
z
" style="fill:#2ca02c;stroke:#ffffff;stroke-width:0.75;"/>
    <path clip-path="url(#p1253943258)" d="M 344.249316 145.502901 
C 344.959083 145.502901 345.639875 145.220908 346.141756 144.719027 
C 346.643636 144.217146 346.92563 143.536354 346.92563 142.826588 
C 346.92563 142.116821 346.643636 141.436029 346.141756 140.934148 
C 345.639875 140.432267 344.959083 140.150274 344.249316 140.150274 
C 343.539549 140.150274 342.858757 140.432267 342.356877 140.934148 
C 341.854996 141.436029 341.573002 142.116821 341.573002 142.826588 
C 341.573002 143.536354 341.854996 144.217146 342.356877 144.719027 
C 342.858757 145.220908 343.539549 145.502901 344.249316 145.502901 
z
" style="fill:#ff7f0e;stroke:#ffffff;stroke-width:0.75;"/>
    <path clip-path="url(#p1253943258)" d="M 334.948427 185.51457 
C 335.483873 185.51457 335.997461 185.301835 336.376079 184.923217 
C 336.754697 184.544599 336.967432 184.031011 336.967432 183.495565 
C 336.967432 182.960119 336.754697 182.446531 336.376079 182.067913 
C 335.997461 181.689295 335.483873 181.47656 334.948427 181.47656 
C 334.412981 181.47656 333.899393 181.689295 333.520775 182.067913 
C 333.142157 182.446531 332.929422 182.960119 332.929422 183.495565 
C 332.929422 184.031011 333.142157 184.544599 333.520775 184.923217 
C 333.899393 185.301835 334.412981 185.51457 334.948427 185.51457 
z
" style="fill:#8c564b;stroke:#ffffff;stroke-width:0.75;"/>
    <path clip-path="url(#p1253943258)" d="M 305.032182 185.167489 
C 305.563474 185.167489 306.073077 184.956405 306.448757 184.580725 
C 306.824437 184.205045 307.035521 183.695442 307.035521 183.16415 
C 307.035521 182.632858 306.824437 182.123255 306.448757 181.747575 
C 306.073077 181.371895 305.563474 181.16081 305.032182 181.16081 
C 304.50089 181.16081 303.991287 181.371895 303.615607 181.747575 
C 303.239927 182.123255 303.028842 182.632858 303.028842 183.16415 
C 303.028842 183.695442 303.239927 184.205045 303.615607 184.580725 
C 303.991287 184.956405 304.50089 185.167489 305.032182 185.167489 
z
" style="fill:#9467bd;stroke:#ffffff;stroke-width:0.75;"/>
    <path clip-path="url(#p1253943258)" d="M 260.43656 152.11357 
C 260.996984 152.11357 261.534531 151.890911 261.930811 151.494631 
C 262.327091 151.098351 262.54975 150.560804 262.54975 150.00038 
C 262.54975 149.439955 262.327091 148.902408 261.930811 148.506128 
C 261.534531 148.109848 260.996984 147.887189 260.43656 147.887189 
C 259.876135 147.887189 259.338588 148.109848 258.942308 148.506128 
C 258.546028 148.902408 258.323369 149.439955 258.323369 150.00038 
C 258.323369 150.560804 258.546028 151.098351 258.942308 151.494631 
C 259.338588 151.890911 259.876135 152.11357 260.43656 152.11357 
z
" style="fill:#9467bd;stroke:#ffffff;stroke-width:0.75;"/>
    <path clip-path="url(#p1253943258)" d="M 304.059229 143.122983 
C 304.598269 143.122983 305.115304 142.90882 305.496462 142.527662 
C 305.877621 142.146503 306.091784 141.629468 306.091784 141.090429 
C 306.091784 140.551389 305.877621 140.034354 305.496462 139.653196 
C 305.115304 139.272037 304.598269 139.057874 304.059229 139.057874 
C 303.520189 139.057874 303.003155 139.272037 302.621996 139.653196 
C 302.240838 140.034354 302.026675 140.551389 302.026675 141.090429 
C 302.026675 141.629468 302.240838 142.146503 302.621996 142.527662 
C 303.003155 142.90882 303.520189 143.122983 304.059229 143.122983 
z
" style="fill:#9467bd;stroke:#ffffff;stroke-width:0.75;"/>
    <path clip-path="url(#p1253943258)" d="M 373.550194 177.199948 
C 374.110606 177.199948 374.648142 176.977294 375.044413 176.581022 
C 375.440685 176.184751 375.663339 175.647215 375.663339 175.086803 
C 375.663339 174.52639 375.440685 173.988855 375.044413 173.592583 
C 374.648142 173.196311 374.110606 172.973657 373.550194 172.973657 
C 372.989781 172.973657 372.452246 173.196311 372.055974 173.592583 
C 371.659703 173.988855 371.437048 174.52639 371.437048 175.086803 
C 371.437048 175.647215 371.659703 176.184751 372.055974 176.581022 
C 372.452246 176.977294 372.989781 177.199948 373.550194 177.199948 
z
" style="fill:#8c564b;stroke:#ffffff;stroke-width:0.75;"/>
    <path clip-path="url(#p1253943258)" d="M 283.734302 201.454919 
C 284.252784 201.454919 284.750101 201.248923 285.116724 200.882301 
C 285.483347 200.515678 285.689342 200.018361 285.689342 199.499878 
C 285.689342 198.981395 285.483347 198.484078 285.116724 198.117455 
C 284.750101 197.750833 284.252784 197.544837 283.734302 197.544837 
C 283.215819 197.544837 282.718502 197.750833 282.351879 198.117455 
C 281.985256 198.484078 281.779261 198.981395 281.779261 199.499878 
C 281.779261 200.018361 281.985256 200.515678 282.351879 200.882301 
C 282.718502 201.248923 283.215819 201.454919 283.734302 201.454919 
z
" style="fill:#9467bd;stroke:#ffffff;stroke-width:0.75;"/>
    <path clip-path="url(#p1253943258)" d="M 300.516778 149.101093 
C 301.054562 149.101093 301.570393 148.887429 301.950664 148.507158 
C 302.330934 148.126888 302.544598 147.611057 302.544598 147.073273 
C 302.544598 146.535489 302.330934 146.019659 301.950664 145.639388 
C 301.570393 145.259117 301.054562 145.045453 300.516778 145.045453 
C 299.978994 145.045453 299.463164 145.259117 299.082893 145.639388 
C 298.702622 146.019659 298.488958 146.535489 298.488958 147.073273 
C 298.488958 147.611057 298.702622 148.126888 299.082893 148.507158 
C 299.463164 148.887429 299.978994 149.101093 300.516778 149.101093 
z
" style="fill:#9467bd;stroke:#ffffff;stroke-width:0.75;"/>
    <path clip-path="url(#p1253943258)" d="M 314.6165 94.97532 
C 315.38332 94.97532 316.118836 94.670659 316.661059 94.128436 
C 317.203283 93.586213 317.507943 92.850697 317.507943 92.083877 
C 317.507943 91.317058 317.203283 90.581542 316.661059 90.039319 
C 316.118836 89.497095 315.38332 89.192435 314.6165 89.192435 
C 313.849681 89.192435 313.114165 89.497095 312.571942 90.039319 
C 312.029718 90.581542 311.725058 91.317058 311.725058 92.083877 
C 311.725058 92.850697 312.029718 93.586213 312.571942 94.128436 
C 313.114165 94.670659 313.849681 94.97532 314.6165 94.97532 
z
" style="fill:#9467bd;stroke:#ffffff;stroke-width:0.75;"/>
    <path clip-path="url(#p1253943258)" d="M 256.811773 86.784177 
C 257.627524 86.784177 258.409975 86.460075 258.986798 85.883252 
C 259.563622 85.306428 259.887723 84.523978 259.887723 83.708226 
C 259.887723 82.892474 259.563622 82.110024 258.986798 81.5332 
C 258.409975 80.956377 257.627524 80.632275 256.811773 80.632275 
C 255.996021 80.632275 255.21357 80.956377 254.636747 81.5332 
C 254.059923 82.110024 253.735822 82.892474 253.735822 83.708226 
C 253.735822 84.523978 254.059923 85.306428 254.636747 85.883252 
C 255.21357 86.460075 255.996021 86.784177 256.811773 86.784177 
z
" style="fill:#9467bd;stroke:#ffffff;stroke-width:0.75;"/>
    <path clip-path="url(#p1253943258)" d="M 291.075968 154.899367 
C 291.636834 154.899367 292.174804 154.676532 292.571397 154.27994 
C 292.967989 153.883348 293.190823 153.345378 293.190823 152.784512 
C 293.190823 152.223646 292.967989 151.685676 292.571397 151.289084 
C 292.174804 150.892491 291.636834 150.669657 291.075968 150.669657 
C 290.515102 150.669657 289.977132 150.892491 289.58054 151.289084 
C 289.183948 151.685676 288.961113 152.223646 288.961113 152.784512 
C 288.961113 153.345378 289.183948 153.883348 289.58054 154.27994 
C 289.977132 154.676532 290.515102 154.899367 291.075968 154.899367 
z
" style="fill:#9467bd;stroke:#ffffff;stroke-width:0.75;"/>
    <path clip-path="url(#p1253943258)" d="M 321.580713 162.559155 
C 322.13742 162.559155 322.6714 162.337973 323.065051 161.944322 
C 323.458702 161.550671 323.679884 161.01669 323.679884 160.459984 
C 323.679884 159.903277 323.458702 159.369297 323.065051 158.975645 
C 322.6714 158.581994 322.13742 158.360813 321.580713 158.360813 
C 321.024006 158.360813 320.490026 158.581994 320.096375 158.975645 
C 319.702724 159.369297 319.481542 159.903277 319.481542 160.459984 
C 319.481542 161.01669 319.702724 161.550671 320.096375 161.944322 
C 320.490026 162.337973 321.024006 162.559155 321.580713 162.559155 
z
" style="fill:#9467bd;stroke:#ffffff;stroke-width:0.75;"/>
    <path clip-path="url(#p1253943258)" d="M 255.119179 205.536483 
C 255.633097 205.536483 256.126037 205.332301 256.489432 204.968905 
C 256.852827 204.60551 257.057009 204.112571 257.057009 203.598652 
C 257.057009 203.084734 256.852827 202.591795 256.489432 202.228399 
C 256.126037 201.865004 255.633097 201.660822 255.119179 201.660822 
C 254.60526 201.660822 254.112321 201.865004 253.748926 202.228399 
C 253.38553 202.591795 253.181348 203.084734 253.181348 203.598652 
C 253.181348 204.112571 253.38553 204.60551 253.748926 204.968905 
C 254.112321 205.332301 254.60526 205.536483 255.119179 205.536483 
z
" style="fill:#9467bd;stroke:#ffffff;stroke-width:0.75;"/>
    <path clip-path="url(#p1253943258)" d="M 360.617758 102.464526 
C 363.232764 102.464526 365.741019 101.425573 367.590107 99.576484 
C 369.439196 97.727395 370.478149 95.219141 370.478149 92.604135 
C 370.478149 89.989129 369.439196 87.480874 367.590107 85.631786 
C 365.741019 83.782697 363.232764 82.743744 360.617758 82.743744 
C 358.002752 82.743744 355.494498 83.782697 353.645409 85.631786 
C 351.79632 87.480874 350.757367 89.989129 350.757367 92.604135 
C 350.757367 95.219141 351.79632 97.727395 353.645409 99.576484 
C 355.494498 101.425573 358.002752 102.464526 360.617758 102.464526 
z
" style="fill:#2ca02c;stroke:#ffffff;stroke-width:0.75;"/>
    <path clip-path="url(#p1253943258)" d="M 179.847015 120.243413 
C 181.097481 120.243413 182.2969 119.746598 183.181113 118.862385 
C 184.065326 117.978172 184.562141 116.778753 184.562141 115.528287 
C 184.562141 114.277821 184.065326 113.078402 183.181113 112.194189 
C 182.2969 111.309976 181.097481 110.813161 179.847015 110.813161 
C 178.596549 110.813161 177.397131 111.309976 176.512918 112.194189 
C 175.628705 113.078402 175.131889 114.277821 175.131889 115.528287 
C 175.131889 116.778753 175.628705 117.978172 176.512918 118.862385 
C 177.397131 119.746598 178.596549 120.243413 179.847015 120.243413 
z
" style="fill:#2ca02c;stroke:#ffffff;stroke-width:0.75;"/>
    <path clip-path="url(#p1253943258)" d="M 311.987066 141.42639 
C 312.521912 141.42639 313.034924 141.213894 313.413117 140.8357 
C 313.791311 140.457507 314.003807 139.944495 314.003807 139.409649 
C 314.003807 138.874803 313.791311 138.36179 313.413117 137.983597 
C 313.034924 137.605404 312.521912 137.392907 311.987066 137.392907 
C 311.452219 137.392907 310.939207 137.605404 310.561014 137.983597 
C 310.18282 138.36179 309.970324 138.874803 309.970324 139.409649 
C 309.970324 139.944495 310.18282 140.457507 310.561014 140.8357 
C 310.939207 141.213894 311.452219 141.42639 311.987066 141.42639 
z
" style="fill:#9467bd;stroke:#ffffff;stroke-width:0.75;"/>
    <path clip-path="url(#p1253943258)" d="M 315.24209 142.190766 
C 315.794885 142.190766 316.325113 141.971138 316.715998 141.580253 
C 317.106883 141.189368 317.326511 140.65914 317.326511 140.106345 
C 317.326511 139.55355 317.106883 139.023322 316.715998 138.632437 
C 316.325113 138.241552 315.794885 138.021925 315.24209 138.021925 
C 314.689295 138.021925 314.159067 138.241552 313.768182 138.632437 
C 313.377297 139.023322 313.15767 139.55355 313.15767 140.106345 
C 313.15767 140.65914 313.377297 141.189368 313.768182 141.580253 
C 314.159067 141.971138 314.689295 142.190766 315.24209 142.190766 
z
" style="fill:#2ca02c;stroke:#ffffff;stroke-width:0.75;"/>
    <path clip-path="url(#p1253943258)" d="M 325.441093 101.812691 
C 326.186843 101.812691 326.902149 101.516401 327.429474 100.989076 
C 327.956799 100.461752 328.253089 99.746445 328.253089 99.000695 
C 328.253089 98.254945 327.956799 97.539639 327.429474 97.012314 
C 326.902149 96.484989 326.186843 96.1887 325.441093 96.1887 
C 324.695343 96.1887 323.980037 96.484989 323.452712 97.012314 
C 322.925387 97.539639 322.629098 98.254945 322.629098 99.000695 
C 322.629098 99.746445 322.925387 100.461752 323.452712 100.989076 
C 323.980037 101.516401 324.695343 101.812691 325.441093 101.812691 
z
" style="fill:#9467bd;stroke:#ffffff;stroke-width:0.75;"/>
    <path clip-path="url(#p1253943258)" d="M 254.21145 81.76335 
C 255.148216 81.76335 256.04674 81.391169 256.709133 80.728776 
C 257.371526 80.066383 257.743707 79.167859 257.743707 78.231093 
C 257.743707 77.294328 257.371526 76.395804 256.709133 75.733411 
C 256.04674 75.071018 255.148216 74.698837 254.21145 74.698837 
C 253.274685 74.698837 252.376161 75.071018 251.713768 75.733411 
C 251.051375 76.395804 250.679194 77.294328 250.679194 78.231093 
C 250.679194 79.167859 251.051375 80.066383 251.713768 80.728776 
C 252.376161 81.391169 253.274685 81.76335 254.21145 81.76335 
z
" style="fill:#2ca02c;stroke:#ffffff;stroke-width:0.75;"/>
    <path clip-path="url(#p1253943258)" d="M 181.378747 159.71913 
C 181.971394 159.71913 182.539847 159.483669 182.958912 159.064604 
C 183.377977 158.645539 183.613438 158.077086 183.613438 157.484439 
C 183.613438 156.891792 183.377977 156.323338 182.958912 155.904273 
C 182.539847 155.485209 181.971394 155.249748 181.378747 155.249748 
C 180.7861 155.249748 180.217646 155.485209 179.798581 155.904273 
C 179.379516 156.323338 179.144055 156.891792 179.144055 157.484439 
C 179.144055 158.077086 179.379516 158.645539 179.798581 159.064604 
C 180.217646 159.483669 180.7861 159.71913 181.378747 159.71913 
z
" style="fill:#2ca02c;stroke:#ffffff;stroke-width:0.75;"/>
    <path clip-path="url(#p1253943258)" d="M 354.259976 198.770811 
C 354.781289 198.770811 355.28132 198.563692 355.649944 198.195068 
C 356.018567 197.826444 356.225687 197.326413 356.225687 196.805101 
C 356.225687 196.283788 356.018567 195.783757 355.649944 195.415134 
C 355.28132 195.04651 354.781289 194.83939 354.259976 194.83939 
C 353.738664 194.83939 353.238633 195.04651 352.870009 195.415134 
C 352.501386 195.783757 352.294266 196.283788 352.294266 196.805101 
C 352.294266 197.326413 352.501386 197.826444 352.870009 198.195068 
C 353.238633 198.563692 353.738664 198.770811 354.259976 198.770811 
z
" style="fill:#9467bd;stroke:#ffffff;stroke-width:0.75;"/>
    <path clip-path="url(#p1253943258)" d="M 267.443668 181.5143 
C 267.958793 181.5143 268.452888 181.309639 268.817136 180.945391 
C 269.181384 180.581143 269.386045 180.087048 269.386045 179.571923 
C 269.386045 179.056799 269.181384 178.562703 268.817136 178.198455 
C 268.452888 177.834207 267.958793 177.629546 267.443668 177.629546 
C 266.928544 177.629546 266.434448 177.834207 266.0702 178.198455 
C 265.705952 178.562703 265.501291 179.056799 265.501291 179.571923 
C 265.501291 180.087048 265.705952 180.581143 266.0702 180.945391 
C 266.434448 181.309639 266.928544 181.5143 267.443668 181.5143 
z
" style="fill:#9467bd;stroke:#ffffff;stroke-width:0.75;"/>
    <path clip-path="url(#p1253943258)" d="M 348.124431 143.321414 
C 348.76916 143.321414 349.38757 143.06526 349.843463 142.609368 
C 350.299356 142.153475 350.55551 141.535065 350.55551 140.890335 
C 350.55551 140.245605 350.299356 139.627195 349.843463 139.171303 
C 349.38757 138.71541 348.76916 138.459256 348.124431 138.459256 
C 347.479701 138.459256 346.861291 138.71541 346.405398 139.171303 
C 345.949505 139.627195 345.693352 140.245605 345.693352 140.890335 
C 345.693352 141.535065 345.949505 142.153475 346.405398 142.609368 
C 346.861291 143.06526 347.479701 143.321414 348.124431 143.321414 
z
" style="fill:#2ca02c;stroke:#ffffff;stroke-width:0.75;"/>
    <path clip-path="url(#p1253943258)" d="M 323.803678 219.263248 
C 324.318221 219.263248 324.811758 219.058819 325.175594 218.694982 
C 325.53943 218.331146 325.74386 217.837609 325.74386 217.323067 
C 325.74386 216.808524 325.53943 216.314987 325.175594 215.951151 
C 324.811758 215.587315 324.318221 215.382885 323.803678 215.382885 
C 323.289136 215.382885 322.795599 215.587315 322.431763 215.951151 
C 322.067926 216.314987 321.863497 216.808524 321.863497 217.323067 
C 321.863497 217.837609 322.067926 218.331146 322.431763 218.694982 
C 322.795599 219.058819 323.289136 219.263248 323.803678 219.263248 
z
" style="fill:#9467bd;stroke:#ffffff;stroke-width:0.75;"/>
    <path clip-path="url(#p1253943258)" d="M 309.367907 115.250968 
C 310.303794 115.250968 311.201475 114.879136 311.863247 114.217364 
C 312.525019 113.555592 312.896851 112.65791 312.896851 111.722023 
C 312.896851 110.786136 312.525019 109.888455 311.863247 109.226683 
C 311.201475 108.564911 310.303794 108.193079 309.367907 108.193079 
C 308.43202 108.193079 307.534338 108.564911 306.872566 109.226683 
C 306.210794 109.888455 305.838962 110.786136 305.838962 111.722023 
C 305.838962 112.65791 306.210794 113.555592 306.872566 114.217364 
C 307.534338 114.879136 308.43202 115.250968 309.367907 115.250968 
z
" style="fill:#8c564b;stroke:#ffffff;stroke-width:0.75;"/>
    <path clip-path="url(#p1253943258)" d="M 337.93709 169.914617 
C 338.598571 169.914617 339.233048 169.651808 339.700785 169.18407 
C 340.168522 168.716333 340.431331 168.081856 340.431331 167.420376 
C 340.431331 166.758896 340.168522 166.124419 339.700785 165.656682 
C 339.233048 165.188944 338.598571 164.926136 337.93709 164.926136 
C 337.27561 164.926136 336.641133 165.188944 336.173396 165.656682 
C 335.705659 166.124419 335.44285 166.758896 335.44285 167.420376 
C 335.44285 168.081856 335.705659 168.716333 336.173396 169.18407 
C 336.641133 169.651808 337.27561 169.914617 337.93709 169.914617 
z
" style="fill:#1f77b4;stroke:#ffffff;stroke-width:0.75;"/>
    <path clip-path="url(#p1253943258)" d="M 280.970176 120.826203 
C 281.558538 120.826203 282.122882 120.592444 282.538917 120.176409 
C 282.954953 119.760373 283.188712 119.196029 283.188712 118.607667 
C 283.188712 118.019304 282.954953 117.45496 282.538917 117.038925 
C 282.122882 116.62289 281.558538 116.389131 280.970176 116.389131 
C 280.381813 116.389131 279.817469 116.62289 279.401434 117.038925 
C 278.985399 117.45496 278.75164 118.019304 278.75164 118.607667 
C 278.75164 119.196029 278.985399 119.760373 279.401434 120.176409 
C 279.817469 120.592444 280.381813 120.826203 280.970176 120.826203 
z
" style="fill:#9467bd;stroke:#ffffff;stroke-width:0.75;"/>
    <path clip-path="url(#p1253943258)" d="M 286.750118 156.26687 
C 287.284844 156.26687 287.797742 156.054421 288.175851 155.676312 
C 288.553959 155.298203 288.766408 154.785306 288.766408 154.250579 
C 288.766408 153.715852 288.553959 153.202955 288.175851 152.824846 
C 287.797742 152.446737 287.284844 152.234288 286.750118 152.234288 
C 286.215391 152.234288 285.702493 152.446737 285.324385 152.824846 
C 284.946276 153.202955 284.733827 153.715852 284.733827 154.250579 
C 284.733827 154.785306 284.946276 155.298203 285.324385 155.676312 
C 285.702493 156.054421 286.215391 156.26687 286.750118 156.26687 
z
" style="fill:#d62728;stroke:#ffffff;stroke-width:0.75;"/>
    <path clip-path="url(#p1253943258)" d="M 222.833337 138.390896 
C 223.3702 138.390896 223.885147 138.177598 224.264767 137.797978 
C 224.644386 137.418359 224.857684 136.903412 224.857684 136.366549 
C 224.857684 135.829686 224.644386 135.314739 224.264767 134.93512 
C 223.885147 134.5555 223.3702 134.342202 222.833337 134.342202 
C 222.296474 134.342202 221.781528 134.5555 221.401908 134.93512 
C 221.022289 135.314739 220.808991 135.829686 220.808991 136.366549 
C 220.808991 136.903412 221.022289 137.418359 221.401908 137.797978 
C 221.781528 138.177598 222.296474 138.390896 222.833337 138.390896 
z
" style="fill:#9467bd;stroke:#ffffff;stroke-width:0.75;"/>
    <path clip-path="url(#p1253943258)" d="M 345.831971 146.158685 
C 346.715653 146.158685 347.563262 145.807594 348.188119 145.182736 
C 348.812977 144.557878 349.164068 143.71027 349.164068 142.826588 
C 349.164068 141.942905 348.812977 141.095297 348.188119 140.470439 
C 347.563262 139.845581 346.715653 139.494491 345.831971 139.494491 
C 344.948289 139.494491 344.100681 139.845581 343.475823 140.470439 
C 342.850965 141.095297 342.499874 141.942905 342.499874 142.826588 
C 342.499874 143.71027 342.850965 144.557878 343.475823 145.182736 
C 344.100681 145.807594 344.948289 146.158685 345.831971 146.158685 
z
" style="fill:#2ca02c;stroke:#ffffff;stroke-width:0.75;"/>
    <path clip-path="url(#p1253943258)" d="M 323.580349 131.72776 
C 324.248941 131.72776 324.890239 131.462126 325.363004 130.98936 
C 325.83577 130.516594 326.101405 129.875296 326.101405 129.206705 
C 326.101405 128.538113 325.83577 127.896815 325.363004 127.424049 
C 324.890239 126.951283 324.248941 126.685649 323.580349 126.685649 
C 322.911757 126.685649 322.270459 126.951283 321.797693 127.424049 
C 321.324928 127.896815 321.059293 128.538113 321.059293 129.206705 
C 321.059293 129.875296 321.324928 130.516594 321.797693 130.98936 
C 322.270459 131.462126 322.911757 131.72776 323.580349 131.72776 
z
" style="fill:#9467bd;stroke:#ffffff;stroke-width:0.75;"/>
    <path clip-path="url(#p1253943258)" d="M 346.09574 152.500408 
C 346.654661 152.500408 347.190766 152.278346 347.585983 151.883129 
C 347.9812 151.487912 348.203262 150.951807 348.203262 150.392886 
C 348.203262 149.833964 347.9812 149.29786 347.585983 148.902642 
C 347.190766 148.507425 346.654661 148.285363 346.09574 148.285363 
C 345.536818 148.285363 345.000713 148.507425 344.605496 148.902642 
C 344.210279 149.29786 343.988217 149.833964 343.988217 150.392886 
C 343.988217 150.951807 344.210279 151.487912 344.605496 151.883129 
C 345.000713 152.278346 345.536818 152.500408 346.09574 152.500408 
z
" style="fill:#9467bd;stroke:#ffffff;stroke-width:0.75;"/>
    <path clip-path="url(#p1253943258)" d="M 273.98992 173.117568 
C 274.517112 173.117568 275.022782 172.908112 275.395563 172.535332 
C 275.768344 172.162551 275.9778 171.65688 275.9778 171.129689 
C 275.9778 170.602497 275.768344 170.096827 275.395563 169.724046 
C 275.022782 169.351265 274.517112 169.14181 273.98992 169.14181 
C 273.462729 169.14181 272.957058 169.351265 272.584278 169.724046 
C 272.211497 170.096827 272.002041 170.602497 272.002041 171.129689 
C 272.002041 171.65688 272.211497 172.162551 272.584278 172.535332 
C 272.957058 172.908112 273.462729 173.117568 273.98992 173.117568 
z
" style="fill:#8c564b;stroke:#ffffff;stroke-width:0.75;"/>
    <path clip-path="url(#p1253943258)" d="M 229.780123 157.917918 
C 230.305404 157.917918 230.809243 157.709221 231.180673 157.337791 
C 231.552103 156.96636 231.7608 156.462522 231.7608 155.93724 
C 231.7608 155.411959 231.552103 154.90812 231.180673 154.53669 
C 230.809243 154.16526 230.305404 153.956563 229.780123 153.956563 
C 229.254841 153.956563 228.751002 154.16526 228.379572 154.53669 
C 228.008142 154.90812 227.799445 155.411959 227.799445 155.93724 
C 227.799445 156.462522 228.008142 156.96636 228.379572 157.337791 
C 228.751002 157.709221 229.254841 157.917918 229.780123 157.917918 
z
" style="fill:#2ca02c;stroke:#ffffff;stroke-width:0.75;"/>
    <path clip-path="url(#p1253943258)" d="M 229.174768 152.745108 
C 229.772291 152.745108 230.345421 152.507709 230.767934 152.085197 
C 231.190447 151.662684 231.427845 151.089553 231.427845 150.49203 
C 231.427845 149.894507 231.190447 149.321377 230.767934 148.898864 
C 230.345421 148.476351 229.772291 148.238953 229.174768 148.238953 
C 228.577245 148.238953 228.004114 148.476351 227.581602 148.898864 
C 227.159089 149.321377 226.92169 149.894507 226.92169 150.49203 
C 226.92169 151.089553 227.159089 151.662684 227.581602 152.085197 
C 228.004114 152.507709 228.577245 152.745108 229.174768 152.745108 
z
" style="fill:#9467bd;stroke:#ffffff;stroke-width:0.75;"/>
    <path clip-path="url(#p1253943258)" d="M 299.60795 108.082495 
C 300.590187 108.082495 301.532326 107.692248 302.226873 106.997702 
C 302.921419 106.303155 303.311666 105.361016 303.311666 104.378779 
C 303.311666 103.396542 302.921419 102.454403 302.226873 101.759856 
C 301.532326 101.06531 300.590187 100.675063 299.60795 100.675063 
C 298.625713 100.675063 297.683574 101.06531 296.989027 101.759856 
C 296.294481 102.454403 295.904234 103.396542 295.904234 104.378779 
C 295.904234 105.361016 296.294481 106.303155 296.989027 106.997702 
C 297.683574 107.692248 298.625713 108.082495 299.60795 108.082495 
z
" style="fill:#9467bd;stroke:#ffffff;stroke-width:0.75;"/>
    <path clip-path="url(#p1253943258)" d="M 306.337565 124.63658 
C 306.99043 124.63658 307.616644 124.377194 308.078289 123.915549 
C 308.539934 123.453903 308.79932 122.82769 308.79932 122.174825 
C 308.79932 121.52196 308.539934 120.895747 308.078289 120.434102 
C 307.616644 119.972457 306.99043 119.713071 306.337565 119.713071 
C 305.6847 119.713071 305.058487 119.972457 304.596842 120.434102 
C 304.135197 120.895747 303.875811 121.52196 303.875811 122.174825 
C 303.875811 122.82769 304.135197 123.453903 304.596842 123.915549 
C 305.058487 124.377194 305.6847 124.63658 306.337565 124.63658 
z
" style="fill:#2ca02c;stroke:#ffffff;stroke-width:0.75;"/>
    <path clip-path="url(#p1253943258)" d="M 303.599636 207.464065 
C 304.18228 207.464065 304.74114 207.232578 305.153132 206.820586 
C 305.565124 206.408594 305.796611 205.849735 305.796611 205.26709 
C 305.796611 204.684445 305.565124 204.125586 305.153132 203.713594 
C 304.74114 203.301602 304.18228 203.070114 303.599636 203.070114 
C 303.016991 203.070114 302.458131 203.301602 302.046139 203.713594 
C 301.634147 204.125586 301.40266 204.684445 301.40266 205.26709 
C 301.40266 205.849735 301.634147 206.408594 302.046139 206.820586 
C 302.458131 207.232578 303.016991 207.464065 303.599636 207.464065 
z
" style="fill:#1f77b4;stroke:#ffffff;stroke-width:0.75;"/>
    <path clip-path="url(#p1253943258)" d="M 317.078685 189.66406 
C 317.62306 189.66406 318.145212 189.447778 318.530143 189.062847 
C 318.915074 188.677916 319.131357 188.155763 319.131357 187.611389 
C 319.131357 187.067014 318.915074 186.544861 318.530143 186.15993 
C 318.145212 185.774999 317.62306 185.558717 317.078685 185.558717 
C 316.53431 185.558717 316.012158 185.774999 315.627226 186.15993 
C 315.242295 186.544861 315.026013 187.067014 315.026013 187.611389 
C 315.026013 188.155763 315.242295 188.677916 315.627226 189.062847 
C 316.012158 189.447778 316.53431 189.66406 317.078685 189.66406 
z
" style="fill:#9467bd;stroke:#ffffff;stroke-width:0.75;"/>
    <path clip-path="url(#p1253943258)" d="M 332.248777 142.590453 
C 332.787117 142.590453 333.303481 142.376568 333.684145 141.995904 
C 334.064809 141.61524 334.278694 141.098876 334.278694 140.560535 
C 334.278694 140.022195 334.064809 139.505831 333.684145 139.125167 
C 333.303481 138.744502 332.787117 138.530618 332.248777 138.530618 
C 331.710436 138.530618 331.194072 138.744502 330.813408 139.125167 
C 330.432744 139.505831 330.218859 140.022195 330.218859 140.560535 
C 330.218859 141.098876 330.432744 141.61524 330.813408 141.995904 
C 331.194072 142.376568 331.710436 142.590453 332.248777 142.590453 
z
" style="fill:#2ca02c;stroke:#ffffff;stroke-width:0.75;"/>
    <path clip-path="url(#p1253943258)" d="M 182.749399 172.004216 
C 183.286872 172.004216 183.802404 171.790676 184.182455 171.410625 
C 184.562506 171.030574 184.776046 170.515042 184.776046 169.977568 
C 184.776046 169.440095 184.562506 168.924563 184.182455 168.544512 
C 183.802404 168.164461 183.286872 167.950921 182.749399 167.950921 
C 182.211925 167.950921 181.696393 168.164461 181.316342 168.544512 
C 180.936291 168.924563 180.722751 169.440095 180.722751 169.977568 
C 180.722751 170.515042 180.936291 171.030574 181.316342 171.410625 
C 181.696393 171.790676 182.211925 172.004216 182.749399 172.004216 
z
" style="fill:#9467bd;stroke:#ffffff;stroke-width:0.75;"/>
    <path clip-path="url(#p1253943258)" d="M 349.94221 143.07927 
C 350.679297 143.07927 351.386295 142.786422 351.907494 142.265223 
C 352.428694 141.744023 352.721542 141.037026 352.721542 140.299938 
C 352.721542 139.562851 352.428694 138.855853 351.907494 138.334654 
C 351.386295 137.813454 350.679297 137.520606 349.94221 137.520606 
C 349.205122 137.520606 348.498125 137.813454 347.976925 138.334654 
C 347.455726 138.855853 347.162878 139.562851 347.162878 140.299938 
C 347.162878 141.037026 347.455726 141.744023 347.976925 142.265223 
C 348.498125 142.786422 349.205122 143.07927 349.94221 143.07927 
z
" style="fill:#1f77b4;stroke:#ffffff;stroke-width:0.75;"/>
    <path clip-path="url(#p1253943258)" d="M 237.607814 107.661856 
C 238.324255 107.661856 239.011448 107.377211 239.518049 106.87061 
C 240.024649 106.36401 240.309294 105.676817 240.309294 104.960376 
C 240.309294 104.243935 240.024649 103.556741 239.518049 103.050141 
C 239.011448 102.543541 238.324255 102.258896 237.607814 102.258896 
C 236.891373 102.258896 236.204179 102.543541 235.697579 103.050141 
C 235.190979 103.556741 234.906334 104.243935 234.906334 104.960376 
C 234.906334 105.676817 235.190979 106.36401 235.697579 106.87061 
C 236.204179 107.377211 236.891373 107.661856 237.607814 107.661856 
z
" style="fill:#2ca02c;stroke:#ffffff;stroke-width:0.75;"/>
    <path clip-path="url(#p1253943258)" d="M 342.662249 110.741544 
C 343.362179 110.741544 344.033537 110.463458 344.528462 109.968533 
C 345.023388 109.473607 345.301474 108.802249 345.301474 108.102319 
C 345.301474 107.402388 345.023388 106.731031 344.528462 106.236105 
C 344.033537 105.741179 343.362179 105.463094 342.662249 105.463094 
C 341.962318 105.463094 341.290961 105.741179 340.796035 106.236105 
C 340.301109 106.731031 340.023024 107.402388 340.023024 108.102319 
C 340.023024 108.802249 340.301109 109.473607 340.796035 109.968533 
C 341.290961 110.463458 341.962318 110.741544 342.662249 110.741544 
z
" style="fill:#9467bd;stroke:#ffffff;stroke-width:0.75;"/>
    <path clip-path="url(#p1253943258)" d="M 363.379868 176.458845 
C 363.98629 176.458845 364.567957 176.217911 364.996762 175.789106 
C 365.425567 175.3603 365.666502 174.778634 365.666502 174.172212 
C 365.666502 173.565789 365.425567 172.984123 364.996762 172.555317 
C 364.567957 172.126512 363.98629 171.885578 363.379868 171.885578 
C 362.773445 171.885578 362.191779 172.126512 361.762974 172.555317 
C 361.334168 172.984123 361.093234 173.565789 361.093234 174.172212 
C 361.093234 174.778634 361.334168 175.3603 361.762974 175.789106 
C 362.191779 176.217911 362.773445 176.458845 363.379868 176.458845 
z
" style="fill:#2ca02c;stroke:#ffffff;stroke-width:0.75;"/>
    <path clip-path="url(#p1253943258)" d="M 290.316332 132.565496 
C 290.874781 132.565496 291.410433 132.343622 291.805316 131.948739 
C 292.200199 131.553855 292.422073 131.018204 292.422073 130.459755 
C 292.422073 129.901306 292.200199 129.365654 291.805316 128.970771 
C 291.410433 128.575888 290.874781 128.354014 290.316332 128.354014 
C 289.757883 128.354014 289.222232 128.575888 288.827349 128.970771 
C 288.432466 129.365654 288.210592 129.901306 288.210592 130.459755 
C 288.210592 131.018204 288.432466 131.553855 288.827349 131.948739 
C 289.222232 132.343622 289.757883 132.565496 290.316332 132.565496 
z
" style="fill:#9467bd;stroke:#ffffff;stroke-width:0.75;"/>
    <path clip-path="url(#p1253943258)" d="M 271.097062 126.876706 
C 271.648229 126.876706 272.176897 126.657725 272.566631 126.26799 
C 272.956365 125.878256 273.175346 125.349589 273.175346 124.798422 
C 273.175346 124.247255 272.956365 123.718588 272.566631 123.328854 
C 272.176897 122.939119 271.648229 122.720138 271.097062 122.720138 
C 270.545895 122.720138 270.017228 122.939119 269.627494 123.328854 
C 269.23776 123.718588 269.018779 124.247255 269.018779 124.798422 
C 269.018779 125.349589 269.23776 125.878256 269.627494 126.26799 
C 270.017228 126.657725 270.545895 126.876706 271.097062 126.876706 
z
" style="fill:#9467bd;stroke:#ffffff;stroke-width:0.75;"/>
    <path clip-path="url(#p1253943258)" d="M 355.228272 135.674408 
C 356.002823 135.674408 356.745755 135.366675 357.293446 134.818984 
C 357.841136 134.271294 358.148869 133.528362 358.148869 132.75381 
C 358.148869 131.979259 357.841136 131.236326 357.293446 130.688636 
C 356.745755 130.140945 356.002823 129.833213 355.228272 129.833213 
C 354.45372 129.833213 353.710788 130.140945 353.163097 130.688636 
C 352.615407 131.236326 352.307674 131.979259 352.307674 132.75381 
C 352.307674 133.528362 352.615407 134.271294 353.163097 134.818984 
C 353.710788 135.366675 354.45372 135.674408 355.228272 135.674408 
z
" style="fill:#2ca02c;stroke:#ffffff;stroke-width:0.75;"/>
    <path clip-path="url(#p1253943258)" d="M 321.631389 125.733943 
C 322.445393 125.733943 323.226166 125.410536 323.801754 124.834949 
C 324.377341 124.259361 324.700748 123.478588 324.700748 122.664584 
C 324.700748 121.850581 324.377341 121.069807 323.801754 120.49422 
C 323.226166 119.918633 322.445393 119.595226 321.631389 119.595226 
C 320.817386 119.595226 320.036612 119.918633 319.461025 120.49422 
C 318.885437 121.069807 318.56203 121.850581 318.56203 122.664584 
C 318.56203 123.478588 318.885437 124.259361 319.461025 124.834949 
C 320.036612 125.410536 320.817386 125.733943 321.631389 125.733943 
z
" style="fill:#2ca02c;stroke:#ffffff;stroke-width:0.75;"/>
    <path clip-path="url(#p1253943258)" d="M 331.703418 167.538947 
C 332.395758 167.538947 333.059834 167.263877 333.549391 166.77432 
C 334.038949 166.284762 334.314019 165.620686 334.314019 164.928347 
C 334.314019 164.236007 334.038949 163.571931 333.549391 163.082374 
C 333.059834 162.592816 332.395758 162.317747 331.703418 162.317747 
C 331.011079 162.317747 330.347003 162.592816 329.857445 163.082374 
C 329.367888 163.571931 329.092818 164.236007 329.092818 164.928347 
C 329.092818 165.620686 329.367888 166.284762 329.857445 166.77432 
C 330.347003 167.263877 331.011079 167.538947 331.703418 167.538947 
z
" style="fill:#9467bd;stroke:#ffffff;stroke-width:0.75;"/>
    <path clip-path="url(#p1253943258)" d="M 311.56523 139.588277 
C 312.121305 139.588277 312.654679 139.367346 313.047884 138.974142 
C 313.441088 138.580938 313.662019 138.047563 313.662019 137.491488 
C 313.662019 136.935413 313.441088 136.402039 313.047884 136.008835 
C 312.654679 135.61563 312.121305 135.394699 311.56523 135.394699 
C 311.009155 135.394699 310.475781 135.61563 310.082576 136.008835 
C 309.689372 136.402039 309.468441 136.935413 309.468441 137.491488 
C 309.468441 138.047563 309.689372 138.580938 310.082576 138.974142 
C 310.475781 139.367346 311.009155 139.588277 311.56523 139.588277 
z
" style="fill:#2ca02c;stroke:#ffffff;stroke-width:0.75;"/>
    <path clip-path="url(#p1253943258)" d="M 308.272495 94.292657 
C 309.037675 94.292657 309.771618 93.988648 310.312681 93.447585 
C 310.853745 92.906521 311.157754 92.172578 311.157754 91.407398 
C 311.157754 90.642218 310.853745 89.908275 310.312681 89.367212 
C 309.771618 88.826148 309.037675 88.522139 308.272495 88.522139 
C 307.507315 88.522139 306.773372 88.826148 306.232308 89.367212 
C 305.691245 89.908275 305.387236 90.642218 305.387236 91.407398 
C 305.387236 92.172578 305.691245 92.906521 306.232308 93.447585 
C 306.773372 93.988648 307.507315 94.292657 308.272495 94.292657 
z
" style="fill:#9467bd;stroke:#ffffff;stroke-width:0.75;"/>
    <path clip-path="url(#p1253943258)" d="M 171.106407 49.573189 
C 172.46678 49.573189 173.771619 49.032707 174.733549 48.070778 
C 175.695478 47.108849 176.23596 45.80401 176.23596 44.443636 
C 176.23596 43.083263 175.695478 41.778424 174.733549 40.816495 
C 173.771619 39.854565 172.46678 39.314083 171.106407 39.314083 
C 169.746034 39.314083 168.441195 39.854565 167.479265 40.816495 
C 166.517336 41.778424 165.976854 43.083263 165.976854 44.443636 
C 165.976854 45.80401 166.517336 47.108849 167.479265 48.070778 
C 168.441195 49.032707 169.746034 49.573189 171.106407 49.573189 
z
" style="fill:#8c564b;stroke:#ffffff;stroke-width:0.75;"/>
   </g>
   <g id="PathCollection_2"/>
   <g id="PathCollection_3"/>
   <g id="PathCollection_4"/>
   <g id="PathCollection_5"/>
   <g id="PathCollection_6"/>
   <g id="PathCollection_7"/>
   <g id="PathCollection_8"/>
   <g id="PathCollection_9"/>
   <g id="PathCollection_10"/>
   <g id="PathCollection_11"/>
   <g id="PathCollection_12"/>
   <g id="PathCollection_13"/>
   <g id="matplotlib.axis_1">
    <g id="xtick_1">
     <g id="line2d_1">
      <defs>
       <path d="M 0 0 
L 0 3.5 
" id="m01f9a987fb" style="stroke:#000000;stroke-width:0.8;"/>
      </defs>
      <g>
       <use style="stroke:#000000;stroke-width:0.8;" x="65.39844" xlink:href="#m01f9a987fb" y="252"/>
      </g>
     </g>
     <g id="text_1">
      <!-- 30 -->
      <defs>
       <path d="M 40.578125 39.3125 
Q 47.65625 37.796875 51.625 33 
Q 55.609375 28.21875 55.609375 21.1875 
Q 55.609375 10.40625 48.1875 4.484375 
Q 40.765625 -1.421875 27.09375 -1.421875 
Q 22.515625 -1.421875 17.65625 -0.515625 
Q 12.796875 0.390625 7.625 2.203125 
L 7.625 11.71875 
Q 11.71875 9.328125 16.59375 8.109375 
Q 21.484375 6.890625 26.8125 6.890625 
Q 36.078125 6.890625 40.9375 10.546875 
Q 45.796875 14.203125 45.796875 21.1875 
Q 45.796875 27.640625 41.28125 31.265625 
Q 36.765625 34.90625 28.71875 34.90625 
L 20.21875 34.90625 
L 20.21875 43.015625 
L 29.109375 43.015625 
Q 36.375 43.015625 40.234375 45.921875 
Q 44.09375 48.828125 44.09375 54.296875 
Q 44.09375 59.90625 40.109375 62.90625 
Q 36.140625 65.921875 28.71875 65.921875 
Q 24.65625 65.921875 20.015625 65.03125 
Q 15.375 64.15625 9.8125 62.3125 
L 9.8125 71.09375 
Q 15.4375 72.65625 20.34375 73.4375 
Q 25.25 74.21875 29.59375 74.21875 
Q 40.828125 74.21875 47.359375 69.109375 
Q 53.90625 64.015625 53.90625 55.328125 
Q 53.90625 49.265625 50.4375 45.09375 
Q 46.96875 40.921875 40.578125 39.3125 
z
" id="DejaVuSans-51"/>
       <path d="M 31.78125 66.40625 
Q 24.171875 66.40625 20.328125 58.90625 
Q 16.5 51.421875 16.5 36.375 
Q 16.5 21.390625 20.328125 13.890625 
Q 24.171875 6.390625 31.78125 6.390625 
Q 39.453125 6.390625 43.28125 13.890625 
Q 47.125 21.390625 47.125 36.375 
Q 47.125 51.421875 43.28125 58.90625 
Q 39.453125 66.40625 31.78125 66.40625 
z
M 31.78125 74.21875 
Q 44.046875 74.21875 50.515625 64.515625 
Q 56.984375 54.828125 56.984375 36.375 
Q 56.984375 17.96875 50.515625 8.265625 
Q 44.046875 -1.421875 31.78125 -1.421875 
Q 19.53125 -1.421875 13.0625 8.265625 
Q 6.59375 17.96875 6.59375 36.375 
Q 6.59375 54.828125 13.0625 64.515625 
Q 19.53125 74.21875 31.78125 74.21875 
z
" id="DejaVuSans-48"/>
      </defs>
      <g transform="translate(59.03594 266.598437)scale(0.1 -0.1)">
       <use xlink:href="#DejaVuSans-51"/>
       <use x="63.623047" xlink:href="#DejaVuSans-48"/>
      </g>
     </g>
    </g>
    <g id="xtick_2">
     <g id="line2d_2">
      <g>
       <use style="stroke:#000000;stroke-width:0.8;" x="110.948207" xlink:href="#m01f9a987fb" y="252"/>
      </g>
     </g>
     <g id="text_2">
      <!-- 40 -->
      <defs>
       <path d="M 37.796875 64.3125 
L 12.890625 25.390625 
L 37.796875 25.390625 
z
M 35.203125 72.90625 
L 47.609375 72.90625 
L 47.609375 25.390625 
L 58.015625 25.390625 
L 58.015625 17.1875 
L 47.609375 17.1875 
L 47.609375 0 
L 37.796875 0 
L 37.796875 17.1875 
L 4.890625 17.1875 
L 4.890625 26.703125 
z
" id="DejaVuSans-52"/>
      </defs>
      <g transform="translate(104.585707 266.598437)scale(0.1 -0.1)">
       <use xlink:href="#DejaVuSans-52"/>
       <use x="63.623047" xlink:href="#DejaVuSans-48"/>
      </g>
     </g>
    </g>
    <g id="xtick_3">
     <g id="line2d_3">
      <g>
       <use style="stroke:#000000;stroke-width:0.8;" x="156.497975" xlink:href="#m01f9a987fb" y="252"/>
      </g>
     </g>
     <g id="text_3">
      <!-- 50 -->
      <defs>
       <path d="M 10.796875 72.90625 
L 49.515625 72.90625 
L 49.515625 64.59375 
L 19.828125 64.59375 
L 19.828125 46.734375 
Q 21.96875 47.46875 24.109375 47.828125 
Q 26.265625 48.1875 28.421875 48.1875 
Q 40.625 48.1875 47.75 41.5 
Q 54.890625 34.8125 54.890625 23.390625 
Q 54.890625 11.625 47.5625 5.09375 
Q 40.234375 -1.421875 26.90625 -1.421875 
Q 22.3125 -1.421875 17.546875 -0.640625 
Q 12.796875 0.140625 7.71875 1.703125 
L 7.71875 11.625 
Q 12.109375 9.234375 16.796875 8.0625 
Q 21.484375 6.890625 26.703125 6.890625 
Q 35.15625 6.890625 40.078125 11.328125 
Q 45.015625 15.765625 45.015625 23.390625 
Q 45.015625 31 40.078125 35.4375 
Q 35.15625 39.890625 26.703125 39.890625 
Q 22.75 39.890625 18.8125 39.015625 
Q 14.890625 38.140625 10.796875 36.28125 
z
" id="DejaVuSans-53"/>
      </defs>
      <g transform="translate(150.135475 266.598437)scale(0.1 -0.1)">
       <use xlink:href="#DejaVuSans-53"/>
       <use x="63.623047" xlink:href="#DejaVuSans-48"/>
      </g>
     </g>
    </g>
    <g id="xtick_4">
     <g id="line2d_4">
      <g>
       <use style="stroke:#000000;stroke-width:0.8;" x="202.047742" xlink:href="#m01f9a987fb" y="252"/>
      </g>
     </g>
     <g id="text_4">
      <!-- 60 -->
      <defs>
       <path d="M 33.015625 40.375 
Q 26.375 40.375 22.484375 35.828125 
Q 18.609375 31.296875 18.609375 23.390625 
Q 18.609375 15.53125 22.484375 10.953125 
Q 26.375 6.390625 33.015625 6.390625 
Q 39.65625 6.390625 43.53125 10.953125 
Q 47.40625 15.53125 47.40625 23.390625 
Q 47.40625 31.296875 43.53125 35.828125 
Q 39.65625 40.375 33.015625 40.375 
z
M 52.59375 71.296875 
L 52.59375 62.3125 
Q 48.875 64.0625 45.09375 64.984375 
Q 41.3125 65.921875 37.59375 65.921875 
Q 27.828125 65.921875 22.671875 59.328125 
Q 17.53125 52.734375 16.796875 39.40625 
Q 19.671875 43.65625 24.015625 45.921875 
Q 28.375 48.1875 33.59375 48.1875 
Q 44.578125 48.1875 50.953125 41.515625 
Q 57.328125 34.859375 57.328125 23.390625 
Q 57.328125 12.15625 50.6875 5.359375 
Q 44.046875 -1.421875 33.015625 -1.421875 
Q 20.359375 -1.421875 13.671875 8.265625 
Q 6.984375 17.96875 6.984375 36.375 
Q 6.984375 53.65625 15.1875 63.9375 
Q 23.390625 74.21875 37.203125 74.21875 
Q 40.921875 74.21875 44.703125 73.484375 
Q 48.484375 72.75 52.59375 71.296875 
z
" id="DejaVuSans-54"/>
      </defs>
      <g transform="translate(195.685242 266.598437)scale(0.1 -0.1)">
       <use xlink:href="#DejaVuSans-54"/>
       <use x="63.623047" xlink:href="#DejaVuSans-48"/>
      </g>
     </g>
    </g>
    <g id="xtick_5">
     <g id="line2d_5">
      <g>
       <use style="stroke:#000000;stroke-width:0.8;" x="247.59751" xlink:href="#m01f9a987fb" y="252"/>
      </g>
     </g>
     <g id="text_5">
      <!-- 70 -->
      <defs>
       <path d="M 8.203125 72.90625 
L 55.078125 72.90625 
L 55.078125 68.703125 
L 28.609375 0 
L 18.3125 0 
L 43.21875 64.59375 
L 8.203125 64.59375 
z
" id="DejaVuSans-55"/>
      </defs>
      <g transform="translate(241.23501 266.598437)scale(0.1 -0.1)">
       <use xlink:href="#DejaVuSans-55"/>
       <use x="63.623047" xlink:href="#DejaVuSans-48"/>
      </g>
     </g>
    </g>
    <g id="xtick_6">
     <g id="line2d_6">
      <g>
       <use style="stroke:#000000;stroke-width:0.8;" x="293.147277" xlink:href="#m01f9a987fb" y="252"/>
      </g>
     </g>
     <g id="text_6">
      <!-- 80 -->
      <defs>
       <path d="M 31.78125 34.625 
Q 24.75 34.625 20.71875 30.859375 
Q 16.703125 27.09375 16.703125 20.515625 
Q 16.703125 13.921875 20.71875 10.15625 
Q 24.75 6.390625 31.78125 6.390625 
Q 38.8125 6.390625 42.859375 10.171875 
Q 46.921875 13.96875 46.921875 20.515625 
Q 46.921875 27.09375 42.890625 30.859375 
Q 38.875 34.625 31.78125 34.625 
z
M 21.921875 38.8125 
Q 15.578125 40.375 12.03125 44.71875 
Q 8.5 49.078125 8.5 55.328125 
Q 8.5 64.0625 14.71875 69.140625 
Q 20.953125 74.21875 31.78125 74.21875 
Q 42.671875 74.21875 48.875 69.140625 
Q 55.078125 64.0625 55.078125 55.328125 
Q 55.078125 49.078125 51.53125 44.71875 
Q 48 40.375 41.703125 38.8125 
Q 48.828125 37.15625 52.796875 32.3125 
Q 56.78125 27.484375 56.78125 20.515625 
Q 56.78125 9.90625 50.3125 4.234375 
Q 43.84375 -1.421875 31.78125 -1.421875 
Q 19.734375 -1.421875 13.25 4.234375 
Q 6.78125 9.90625 6.78125 20.515625 
Q 6.78125 27.484375 10.78125 32.3125 
Q 14.796875 37.15625 21.921875 38.8125 
z
M 18.3125 54.390625 
Q 18.3125 48.734375 21.84375 45.5625 
Q 25.390625 42.390625 31.78125 42.390625 
Q 38.140625 42.390625 41.71875 45.5625 
Q 45.3125 48.734375 45.3125 54.390625 
Q 45.3125 60.0625 41.71875 63.234375 
Q 38.140625 66.40625 31.78125 66.40625 
Q 25.390625 66.40625 21.84375 63.234375 
Q 18.3125 60.0625 18.3125 54.390625 
z
" id="DejaVuSans-56"/>
      </defs>
      <g transform="translate(286.784777 266.598437)scale(0.1 -0.1)">
       <use xlink:href="#DejaVuSans-56"/>
       <use x="63.623047" xlink:href="#DejaVuSans-48"/>
      </g>
     </g>
    </g>
    <g id="xtick_7">
     <g id="line2d_7">
      <g>
       <use style="stroke:#000000;stroke-width:0.8;" x="338.697045" xlink:href="#m01f9a987fb" y="252"/>
      </g>
     </g>
     <g id="text_7">
      <!-- 90 -->
      <defs>
       <path d="M 10.984375 1.515625 
L 10.984375 10.5 
Q 14.703125 8.734375 18.5 7.8125 
Q 22.3125 6.890625 25.984375 6.890625 
Q 35.75 6.890625 40.890625 13.453125 
Q 46.046875 20.015625 46.78125 33.40625 
Q 43.953125 29.203125 39.59375 26.953125 
Q 35.25 24.703125 29.984375 24.703125 
Q 19.046875 24.703125 12.671875 31.3125 
Q 6.296875 37.9375 6.296875 49.421875 
Q 6.296875 60.640625 12.9375 67.421875 
Q 19.578125 74.21875 30.609375 74.21875 
Q 43.265625 74.21875 49.921875 64.515625 
Q 56.59375 54.828125 56.59375 36.375 
Q 56.59375 19.140625 48.40625 8.859375 
Q 40.234375 -1.421875 26.421875 -1.421875 
Q 22.703125 -1.421875 18.890625 -0.6875 
Q 15.09375 0.046875 10.984375 1.515625 
z
M 30.609375 32.421875 
Q 37.25 32.421875 41.125 36.953125 
Q 45.015625 41.5 45.015625 49.421875 
Q 45.015625 57.28125 41.125 61.84375 
Q 37.25 66.40625 30.609375 66.40625 
Q 23.96875 66.40625 20.09375 61.84375 
Q 16.21875 57.28125 16.21875 49.421875 
Q 16.21875 41.5 20.09375 36.953125 
Q 23.96875 32.421875 30.609375 32.421875 
z
" id="DejaVuSans-57"/>
      </defs>
      <g transform="translate(332.334545 266.598437)scale(0.1 -0.1)">
       <use xlink:href="#DejaVuSans-57"/>
       <use x="63.623047" xlink:href="#DejaVuSans-48"/>
      </g>
     </g>
    </g>
    <g id="xtick_8">
     <g id="line2d_8">
      <g>
       <use style="stroke:#000000;stroke-width:0.8;" x="384.246812" xlink:href="#m01f9a987fb" y="252"/>
      </g>
     </g>
     <g id="text_8">
      <!-- 100 -->
      <defs>
       <path d="M 12.40625 8.296875 
L 28.515625 8.296875 
L 28.515625 63.921875 
L 10.984375 60.40625 
L 10.984375 69.390625 
L 28.421875 72.90625 
L 38.28125 72.90625 
L 38.28125 8.296875 
L 54.390625 8.296875 
L 54.390625 0 
L 12.40625 0 
z
" id="DejaVuSans-49"/>
      </defs>
      <g transform="translate(374.703062 266.598437)scale(0.1 -0.1)">
       <use xlink:href="#DejaVuSans-49"/>
       <use x="63.623047" xlink:href="#DejaVuSans-48"/>
       <use x="127.246094" xlink:href="#DejaVuSans-48"/>
      </g>
     </g>
    </g>
    <g id="text_9">
     <!-- Flights Percent Loss -->
     <defs>
      <path d="M 9.8125 72.90625 
L 51.703125 72.90625 
L 51.703125 64.59375 
L 19.671875 64.59375 
L 19.671875 43.109375 
L 48.578125 43.109375 
L 48.578125 34.8125 
L 19.671875 34.8125 
L 19.671875 0 
L 9.8125 0 
z
" id="DejaVuSans-70"/>
      <path d="M 9.421875 75.984375 
L 18.40625 75.984375 
L 18.40625 0 
L 9.421875 0 
z
" id="DejaVuSans-108"/>
      <path d="M 9.421875 54.6875 
L 18.40625 54.6875 
L 18.40625 0 
L 9.421875 0 
z
M 9.421875 75.984375 
L 18.40625 75.984375 
L 18.40625 64.59375 
L 9.421875 64.59375 
z
" id="DejaVuSans-105"/>
      <path d="M 45.40625 27.984375 
Q 45.40625 37.75 41.375 43.109375 
Q 37.359375 48.484375 30.078125 48.484375 
Q 22.859375 48.484375 18.828125 43.109375 
Q 14.796875 37.75 14.796875 27.984375 
Q 14.796875 18.265625 18.828125 12.890625 
Q 22.859375 7.515625 30.078125 7.515625 
Q 37.359375 7.515625 41.375 12.890625 
Q 45.40625 18.265625 45.40625 27.984375 
z
M 54.390625 6.78125 
Q 54.390625 -7.171875 48.1875 -13.984375 
Q 42 -20.796875 29.203125 -20.796875 
Q 24.46875 -20.796875 20.265625 -20.09375 
Q 16.0625 -19.390625 12.109375 -17.921875 
L 12.109375 -9.1875 
Q 16.0625 -11.328125 19.921875 -12.34375 
Q 23.78125 -13.375 27.78125 -13.375 
Q 36.625 -13.375 41.015625 -8.765625 
Q 45.40625 -4.15625 45.40625 5.171875 
L 45.40625 9.625 
Q 42.625 4.78125 38.28125 2.390625 
Q 33.9375 0 27.875 0 
Q 17.828125 0 11.671875 7.65625 
Q 5.515625 15.328125 5.515625 27.984375 
Q 5.515625 40.671875 11.671875 48.328125 
Q 17.828125 56 27.875 56 
Q 33.9375 56 38.28125 53.609375 
Q 42.625 51.21875 45.40625 46.390625 
L 45.40625 54.6875 
L 54.390625 54.6875 
z
" id="DejaVuSans-103"/>
      <path d="M 54.890625 33.015625 
L 54.890625 0 
L 45.90625 0 
L 45.90625 32.71875 
Q 45.90625 40.484375 42.875 44.328125 
Q 39.84375 48.1875 33.796875 48.1875 
Q 26.515625 48.1875 22.3125 43.546875 
Q 18.109375 38.921875 18.109375 30.90625 
L 18.109375 0 
L 9.078125 0 
L 9.078125 75.984375 
L 18.109375 75.984375 
L 18.109375 46.1875 
Q 21.34375 51.125 25.703125 53.5625 
Q 30.078125 56 35.796875 56 
Q 45.21875 56 50.046875 50.171875 
Q 54.890625 44.34375 54.890625 33.015625 
z
" id="DejaVuSans-104"/>
      <path d="M 18.3125 70.21875 
L 18.3125 54.6875 
L 36.8125 54.6875 
L 36.8125 47.703125 
L 18.3125 47.703125 
L 18.3125 18.015625 
Q 18.3125 11.328125 20.140625 9.421875 
Q 21.96875 7.515625 27.59375 7.515625 
L 36.8125 7.515625 
L 36.8125 0 
L 27.59375 0 
Q 17.1875 0 13.234375 3.875 
Q 9.28125 7.765625 9.28125 18.015625 
L 9.28125 47.703125 
L 2.6875 47.703125 
L 2.6875 54.6875 
L 9.28125 54.6875 
L 9.28125 70.21875 
z
" id="DejaVuSans-116"/>
      <path d="M 44.28125 53.078125 
L 44.28125 44.578125 
Q 40.484375 46.53125 36.375 47.5 
Q 32.28125 48.484375 27.875 48.484375 
Q 21.1875 48.484375 17.84375 46.4375 
Q 14.5 44.390625 14.5 40.28125 
Q 14.5 37.15625 16.890625 35.375 
Q 19.28125 33.59375 26.515625 31.984375 
L 29.59375 31.296875 
Q 39.15625 29.25 43.1875 25.515625 
Q 47.21875 21.78125 47.21875 15.09375 
Q 47.21875 7.46875 41.1875 3.015625 
Q 35.15625 -1.421875 24.609375 -1.421875 
Q 20.21875 -1.421875 15.453125 -0.5625 
Q 10.6875 0.296875 5.421875 2 
L 5.421875 11.28125 
Q 10.40625 8.6875 15.234375 7.390625 
Q 20.0625 6.109375 24.8125 6.109375 
Q 31.15625 6.109375 34.5625 8.28125 
Q 37.984375 10.453125 37.984375 14.40625 
Q 37.984375 18.0625 35.515625 20.015625 
Q 33.0625 21.96875 24.703125 23.78125 
L 21.578125 24.515625 
Q 13.234375 26.265625 9.515625 29.90625 
Q 5.8125 33.546875 5.8125 39.890625 
Q 5.8125 47.609375 11.28125 51.796875 
Q 16.75 56 26.8125 56 
Q 31.78125 56 36.171875 55.265625 
Q 40.578125 54.546875 44.28125 53.078125 
z
" id="DejaVuSans-115"/>
      <path id="DejaVuSans-32"/>
      <path d="M 19.671875 64.796875 
L 19.671875 37.40625 
L 32.078125 37.40625 
Q 38.96875 37.40625 42.71875 40.96875 
Q 46.484375 44.53125 46.484375 51.125 
Q 46.484375 57.671875 42.71875 61.234375 
Q 38.96875 64.796875 32.078125 64.796875 
z
M 9.8125 72.90625 
L 32.078125 72.90625 
Q 44.34375 72.90625 50.609375 67.359375 
Q 56.890625 61.8125 56.890625 51.125 
Q 56.890625 40.328125 50.609375 34.8125 
Q 44.34375 29.296875 32.078125 29.296875 
L 19.671875 29.296875 
L 19.671875 0 
L 9.8125 0 
z
" id="DejaVuSans-80"/>
      <path d="M 56.203125 29.59375 
L 56.203125 25.203125 
L 14.890625 25.203125 
Q 15.484375 15.921875 20.484375 11.0625 
Q 25.484375 6.203125 34.421875 6.203125 
Q 39.59375 6.203125 44.453125 7.46875 
Q 49.3125 8.734375 54.109375 11.28125 
L 54.109375 2.78125 
Q 49.265625 0.734375 44.1875 -0.34375 
Q 39.109375 -1.421875 33.890625 -1.421875 
Q 20.796875 -1.421875 13.15625 6.1875 
Q 5.515625 13.8125 5.515625 26.8125 
Q 5.515625 40.234375 12.765625 48.109375 
Q 20.015625 56 32.328125 56 
Q 43.359375 56 49.78125 48.890625 
Q 56.203125 41.796875 56.203125 29.59375 
z
M 47.21875 32.234375 
Q 47.125 39.59375 43.09375 43.984375 
Q 39.0625 48.390625 32.421875 48.390625 
Q 24.90625 48.390625 20.390625 44.140625 
Q 15.875 39.890625 15.1875 32.171875 
z
" id="DejaVuSans-101"/>
      <path d="M 41.109375 46.296875 
Q 39.59375 47.171875 37.8125 47.578125 
Q 36.03125 48 33.890625 48 
Q 26.265625 48 22.1875 43.046875 
Q 18.109375 38.09375 18.109375 28.8125 
L 18.109375 0 
L 9.078125 0 
L 9.078125 54.6875 
L 18.109375 54.6875 
L 18.109375 46.1875 
Q 20.953125 51.171875 25.484375 53.578125 
Q 30.03125 56 36.53125 56 
Q 37.453125 56 38.578125 55.875 
Q 39.703125 55.765625 41.0625 55.515625 
z
" id="DejaVuSans-114"/>
      <path d="M 48.78125 52.59375 
L 48.78125 44.1875 
Q 44.96875 46.296875 41.140625 47.34375 
Q 37.3125 48.390625 33.40625 48.390625 
Q 24.65625 48.390625 19.8125 42.84375 
Q 14.984375 37.3125 14.984375 27.296875 
Q 14.984375 17.28125 19.8125 11.734375 
Q 24.65625 6.203125 33.40625 6.203125 
Q 37.3125 6.203125 41.140625 7.25 
Q 44.96875 8.296875 48.78125 10.40625 
L 48.78125 2.09375 
Q 45.015625 0.34375 40.984375 -0.53125 
Q 36.96875 -1.421875 32.421875 -1.421875 
Q 20.0625 -1.421875 12.78125 6.34375 
Q 5.515625 14.109375 5.515625 27.296875 
Q 5.515625 40.671875 12.859375 48.328125 
Q 20.21875 56 33.015625 56 
Q 37.15625 56 41.109375 55.140625 
Q 45.0625 54.296875 48.78125 52.59375 
z
" id="DejaVuSans-99"/>
      <path d="M 54.890625 33.015625 
L 54.890625 0 
L 45.90625 0 
L 45.90625 32.71875 
Q 45.90625 40.484375 42.875 44.328125 
Q 39.84375 48.1875 33.796875 48.1875 
Q 26.515625 48.1875 22.3125 43.546875 
Q 18.109375 38.921875 18.109375 30.90625 
L 18.109375 0 
L 9.078125 0 
L 9.078125 54.6875 
L 18.109375 54.6875 
L 18.109375 46.1875 
Q 21.34375 51.125 25.703125 53.5625 
Q 30.078125 56 35.796875 56 
Q 45.21875 56 50.046875 50.171875 
Q 54.890625 44.34375 54.890625 33.015625 
z
" id="DejaVuSans-110"/>
      <path d="M 9.8125 72.90625 
L 19.671875 72.90625 
L 19.671875 8.296875 
L 55.171875 8.296875 
L 55.171875 0 
L 9.8125 0 
z
" id="DejaVuSans-76"/>
      <path d="M 30.609375 48.390625 
Q 23.390625 48.390625 19.1875 42.75 
Q 14.984375 37.109375 14.984375 27.296875 
Q 14.984375 17.484375 19.15625 11.84375 
Q 23.34375 6.203125 30.609375 6.203125 
Q 37.796875 6.203125 41.984375 11.859375 
Q 46.1875 17.53125 46.1875 27.296875 
Q 46.1875 37.015625 41.984375 42.703125 
Q 37.796875 48.390625 30.609375 48.390625 
z
M 30.609375 56 
Q 42.328125 56 49.015625 48.375 
Q 55.71875 40.765625 55.71875 27.296875 
Q 55.71875 13.875 49.015625 6.21875 
Q 42.328125 -1.421875 30.609375 -1.421875 
Q 18.84375 -1.421875 12.171875 6.21875 
Q 5.515625 13.875 5.515625 27.296875 
Q 5.515625 40.765625 12.171875 48.375 
Q 18.84375 56 30.609375 56 
z
" id="DejaVuSans-111"/>
     </defs>
     <g transform="translate(171.508594 280.276563)scale(0.1 -0.1)">
      <use xlink:href="#DejaVuSans-70"/>
      <use x="57.519531" xlink:href="#DejaVuSans-108"/>
      <use x="85.302734" xlink:href="#DejaVuSans-105"/>
      <use x="113.085938" xlink:href="#DejaVuSans-103"/>
      <use x="176.5625" xlink:href="#DejaVuSans-104"/>
      <use x="239.941406" xlink:href="#DejaVuSans-116"/>
      <use x="279.150391" xlink:href="#DejaVuSans-115"/>
      <use x="331.25" xlink:href="#DejaVuSans-32"/>
      <use x="363.037109" xlink:href="#DejaVuSans-80"/>
      <use x="423.292969" xlink:href="#DejaVuSans-101"/>
      <use x="484.816406" xlink:href="#DejaVuSans-114"/>
      <use x="525.898438" xlink:href="#DejaVuSans-99"/>
      <use x="580.878906" xlink:href="#DejaVuSans-101"/>
      <use x="642.402344" xlink:href="#DejaVuSans-110"/>
      <use x="705.78125" xlink:href="#DejaVuSans-116"/>
      <use x="744.990234" xlink:href="#DejaVuSans-32"/>
      <use x="776.777344" xlink:href="#DejaVuSans-76"/>
      <use x="832.474609" xlink:href="#DejaVuSans-111"/>
      <use x="893.65625" xlink:href="#DejaVuSans-115"/>
      <use x="945.755859" xlink:href="#DejaVuSans-115"/>
     </g>
    </g>
   </g>
   <g id="matplotlib.axis_2">
    <g id="ytick_1">
     <g id="line2d_9">
      <defs>
       <path d="M 0 0 
L -3.5 0 
" id="m8b6779c9f8" style="stroke:#000000;stroke-width:0.8;"/>
      </defs>
      <g>
       <use style="stroke:#000000;stroke-width:0.8;" x="54" xlink:href="#m8b6779c9f8" y="226.270419"/>
      </g>
     </g>
     <g id="text_10">
      <!-- $\mathdefault{10^{10}}$ -->
      <g transform="translate(24.9 230.069638)scale(0.1 -0.1)">
       <use transform="translate(0 0.765625)" xlink:href="#DejaVuSans-49"/>
       <use transform="translate(63.623047 0.765625)" xlink:href="#DejaVuSans-48"/>
       <use transform="translate(128.203125 39.046875)scale(0.7)" xlink:href="#DejaVuSans-49"/>
       <use transform="translate(172.739258 39.046875)scale(0.7)" xlink:href="#DejaVuSans-48"/>
      </g>
     </g>
    </g>
    <g id="ytick_2">
     <g id="line2d_10">
      <g>
       <use style="stroke:#000000;stroke-width:0.8;" x="54" xlink:href="#m8b6779c9f8" y="171.366948"/>
      </g>
     </g>
     <g id="text_11">
      <!-- $\mathdefault{10^{11}}$ -->
      <g transform="translate(24.9 175.166167)scale(0.1 -0.1)">
       <use transform="translate(0 0.684375)" xlink:href="#DejaVuSans-49"/>
       <use transform="translate(63.623047 0.684375)" xlink:href="#DejaVuSans-48"/>
       <use transform="translate(128.203125 38.965625)scale(0.7)" xlink:href="#DejaVuSans-49"/>
       <use transform="translate(172.739258 38.965625)scale(0.7)" xlink:href="#DejaVuSans-49"/>
      </g>
     </g>
    </g>
    <g id="ytick_3">
     <g id="line2d_11">
      <g>
       <use style="stroke:#000000;stroke-width:0.8;" x="54" xlink:href="#m8b6779c9f8" y="116.463477"/>
      </g>
     </g>
     <g id="text_12">
      <!-- $\mathdefault{10^{12}}$ -->
      <defs>
       <path d="M 19.1875 8.296875 
L 53.609375 8.296875 
L 53.609375 0 
L 7.328125 0 
L 7.328125 8.296875 
Q 12.9375 14.109375 22.625 23.890625 
Q 32.328125 33.6875 34.8125 36.53125 
Q 39.546875 41.84375 41.421875 45.53125 
Q 43.3125 49.21875 43.3125 52.78125 
Q 43.3125 58.59375 39.234375 62.25 
Q 35.15625 65.921875 28.609375 65.921875 
Q 23.96875 65.921875 18.8125 64.3125 
Q 13.671875 62.703125 7.8125 59.421875 
L 7.8125 69.390625 
Q 13.765625 71.78125 18.9375 73 
Q 24.125 74.21875 28.421875 74.21875 
Q 39.75 74.21875 46.484375 68.546875 
Q 53.21875 62.890625 53.21875 53.421875 
Q 53.21875 48.921875 51.53125 44.890625 
Q 49.859375 40.875 45.40625 35.40625 
Q 44.1875 33.984375 37.640625 27.21875 
Q 31.109375 20.453125 19.1875 8.296875 
z
" id="DejaVuSans-50"/>
      </defs>
      <g transform="translate(24.9 120.262696)scale(0.1 -0.1)">
       <use transform="translate(0 0.765625)" xlink:href="#DejaVuSans-49"/>
       <use transform="translate(63.623047 0.765625)" xlink:href="#DejaVuSans-48"/>
       <use transform="translate(128.203125 39.046875)scale(0.7)" xlink:href="#DejaVuSans-49"/>
       <use transform="translate(172.739258 39.046875)scale(0.7)" xlink:href="#DejaVuSans-50"/>
      </g>
     </g>
    </g>
    <g id="ytick_4">
     <g id="line2d_12">
      <g>
       <use style="stroke:#000000;stroke-width:0.8;" x="54" xlink:href="#m8b6779c9f8" y="61.560006"/>
      </g>
     </g>
     <g id="text_13">
      <!-- $\mathdefault{10^{13}}$ -->
      <g transform="translate(24.9 65.359225)scale(0.1 -0.1)">
       <use transform="translate(0 0.765625)" xlink:href="#DejaVuSans-49"/>
       <use transform="translate(63.623047 0.765625)" xlink:href="#DejaVuSans-48"/>
       <use transform="translate(128.203125 39.046875)scale(0.7)" xlink:href="#DejaVuSans-49"/>
       <use transform="translate(172.739258 39.046875)scale(0.7)" xlink:href="#DejaVuSans-51"/>
      </g>
     </g>
    </g>
    <g id="ytick_5">
     <g id="line2d_13">
      <defs>
       <path d="M 0 0 
L -2 0 
" id="mc82fa4dc65" style="stroke:#000000;stroke-width:0.6;"/>
      </defs>
      <g>
       <use style="stroke:#000000;stroke-width:0.6;" x="54" xlink:href="#mc82fa4dc65" y="248.118707"/>
      </g>
     </g>
    </g>
    <g id="ytick_6">
     <g id="line2d_14">
      <g>
       <use style="stroke:#000000;stroke-width:0.6;" x="54" xlink:href="#mc82fa4dc65" y="242.798011"/>
      </g>
     </g>
    </g>
    <g id="ytick_7">
     <g id="line2d_15">
      <g>
       <use style="stroke:#000000;stroke-width:0.6;" x="54" xlink:href="#mc82fa4dc65" y="238.450685"/>
      </g>
     </g>
    </g>
    <g id="ytick_8">
     <g id="line2d_16">
      <g>
       <use style="stroke:#000000;stroke-width:0.6;" x="54" xlink:href="#mc82fa4dc65" y="234.775074"/>
      </g>
     </g>
    </g>
    <g id="ytick_9">
     <g id="line2d_17">
      <g>
       <use style="stroke:#000000;stroke-width:0.6;" x="54" xlink:href="#mc82fa4dc65" y="231.591115"/>
      </g>
     </g>
    </g>
    <g id="ytick_10">
     <g id="line2d_18">
      <g>
       <use style="stroke:#000000;stroke-width:0.6;" x="54" xlink:href="#mc82fa4dc65" y="228.782664"/>
      </g>
     </g>
    </g>
    <g id="ytick_11">
     <g id="line2d_19">
      <g>
       <use style="stroke:#000000;stroke-width:0.6;" x="54" xlink:href="#mc82fa4dc65" y="209.742827"/>
      </g>
     </g>
    </g>
    <g id="ytick_12">
     <g id="line2d_20">
      <g>
       <use style="stroke:#000000;stroke-width:0.6;" x="54" xlink:href="#mc82fa4dc65" y="200.074806"/>
      </g>
     </g>
    </g>
    <g id="ytick_13">
     <g id="line2d_21">
      <g>
       <use style="stroke:#000000;stroke-width:0.6;" x="54" xlink:href="#mc82fa4dc65" y="193.215236"/>
      </g>
     </g>
    </g>
    <g id="ytick_14">
     <g id="line2d_22">
      <g>
       <use style="stroke:#000000;stroke-width:0.6;" x="54" xlink:href="#mc82fa4dc65" y="187.89454"/>
      </g>
     </g>
    </g>
    <g id="ytick_15">
     <g id="line2d_23">
      <g>
       <use style="stroke:#000000;stroke-width:0.6;" x="54" xlink:href="#mc82fa4dc65" y="183.547214"/>
      </g>
     </g>
    </g>
    <g id="ytick_16">
     <g id="line2d_24">
      <g>
       <use style="stroke:#000000;stroke-width:0.6;" x="54" xlink:href="#mc82fa4dc65" y="179.871603"/>
      </g>
     </g>
    </g>
    <g id="ytick_17">
     <g id="line2d_25">
      <g>
       <use style="stroke:#000000;stroke-width:0.6;" x="54" xlink:href="#mc82fa4dc65" y="176.687644"/>
      </g>
     </g>
    </g>
    <g id="ytick_18">
     <g id="line2d_26">
      <g>
       <use style="stroke:#000000;stroke-width:0.6;" x="54" xlink:href="#mc82fa4dc65" y="173.879193"/>
      </g>
     </g>
    </g>
    <g id="ytick_19">
     <g id="line2d_27">
      <g>
       <use style="stroke:#000000;stroke-width:0.6;" x="54" xlink:href="#mc82fa4dc65" y="154.839356"/>
      </g>
     </g>
    </g>
    <g id="ytick_20">
     <g id="line2d_28">
      <g>
       <use style="stroke:#000000;stroke-width:0.6;" x="54" xlink:href="#mc82fa4dc65" y="145.171335"/>
      </g>
     </g>
    </g>
    <g id="ytick_21">
     <g id="line2d_29">
      <g>
       <use style="stroke:#000000;stroke-width:0.6;" x="54" xlink:href="#mc82fa4dc65" y="138.311765"/>
      </g>
     </g>
    </g>
    <g id="ytick_22">
     <g id="line2d_30">
      <g>
       <use style="stroke:#000000;stroke-width:0.6;" x="54" xlink:href="#mc82fa4dc65" y="132.991069"/>
      </g>
     </g>
    </g>
    <g id="ytick_23">
     <g id="line2d_31">
      <g>
       <use style="stroke:#000000;stroke-width:0.6;" x="54" xlink:href="#mc82fa4dc65" y="128.643743"/>
      </g>
     </g>
    </g>
    <g id="ytick_24">
     <g id="line2d_32">
      <g>
       <use style="stroke:#000000;stroke-width:0.6;" x="54" xlink:href="#mc82fa4dc65" y="124.968132"/>
      </g>
     </g>
    </g>
    <g id="ytick_25">
     <g id="line2d_33">
      <g>
       <use style="stroke:#000000;stroke-width:0.6;" x="54" xlink:href="#mc82fa4dc65" y="121.784173"/>
      </g>
     </g>
    </g>
    <g id="ytick_26">
     <g id="line2d_34">
      <g>
       <use style="stroke:#000000;stroke-width:0.6;" x="54" xlink:href="#mc82fa4dc65" y="118.975722"/>
      </g>
     </g>
    </g>
    <g id="ytick_27">
     <g id="line2d_35">
      <g>
       <use style="stroke:#000000;stroke-width:0.6;" x="54" xlink:href="#mc82fa4dc65" y="99.935885"/>
      </g>
     </g>
    </g>
    <g id="ytick_28">
     <g id="line2d_36">
      <g>
       <use style="stroke:#000000;stroke-width:0.6;" x="54" xlink:href="#mc82fa4dc65" y="90.267864"/>
      </g>
     </g>
    </g>
    <g id="ytick_29">
     <g id="line2d_37">
      <g>
       <use style="stroke:#000000;stroke-width:0.6;" x="54" xlink:href="#mc82fa4dc65" y="83.408294"/>
      </g>
     </g>
    </g>
    <g id="ytick_30">
     <g id="line2d_38">
      <g>
       <use style="stroke:#000000;stroke-width:0.6;" x="54" xlink:href="#mc82fa4dc65" y="78.087598"/>
      </g>
     </g>
    </g>
    <g id="ytick_31">
     <g id="line2d_39">
      <g>
       <use style="stroke:#000000;stroke-width:0.6;" x="54" xlink:href="#mc82fa4dc65" y="73.740272"/>
      </g>
     </g>
    </g>
    <g id="ytick_32">
     <g id="line2d_40">
      <g>
       <use style="stroke:#000000;stroke-width:0.6;" x="54" xlink:href="#mc82fa4dc65" y="70.064661"/>
      </g>
     </g>
    </g>
    <g id="ytick_33">
     <g id="line2d_41">
      <g>
       <use style="stroke:#000000;stroke-width:0.6;" x="54" xlink:href="#mc82fa4dc65" y="66.880702"/>
      </g>
     </g>
    </g>
    <g id="ytick_34">
     <g id="line2d_42">
      <g>
       <use style="stroke:#000000;stroke-width:0.6;" x="54" xlink:href="#mc82fa4dc65" y="64.072251"/>
      </g>
     </g>
    </g>
    <g id="ytick_35">
     <g id="line2d_43">
      <g>
       <use style="stroke:#000000;stroke-width:0.6;" x="54" xlink:href="#mc82fa4dc65" y="45.032414"/>
      </g>
     </g>
    </g>
    <g id="ytick_36">
     <g id="line2d_44">
      <g>
       <use style="stroke:#000000;stroke-width:0.6;" x="54" xlink:href="#mc82fa4dc65" y="35.364393"/>
      </g>
     </g>
    </g>
    <g id="text_14">
     <!-- Gross Domestic Product -->
     <defs>
      <path d="M 59.515625 10.40625 
L 59.515625 29.984375 
L 43.40625 29.984375 
L 43.40625 38.09375 
L 69.28125 38.09375 
L 69.28125 6.78125 
Q 63.578125 2.734375 56.6875 0.65625 
Q 49.8125 -1.421875 42 -1.421875 
Q 24.90625 -1.421875 15.25 8.5625 
Q 5.609375 18.5625 5.609375 36.375 
Q 5.609375 54.25 15.25 64.234375 
Q 24.90625 74.21875 42 74.21875 
Q 49.125 74.21875 55.546875 72.453125 
Q 61.96875 70.703125 67.390625 67.28125 
L 67.390625 56.78125 
Q 61.921875 61.421875 55.765625 63.765625 
Q 49.609375 66.109375 42.828125 66.109375 
Q 29.4375 66.109375 22.71875 58.640625 
Q 16.015625 51.171875 16.015625 36.375 
Q 16.015625 21.625 22.71875 14.15625 
Q 29.4375 6.6875 42.828125 6.6875 
Q 48.046875 6.6875 52.140625 7.59375 
Q 56.25 8.5 59.515625 10.40625 
z
" id="DejaVuSans-71"/>
      <path d="M 19.671875 64.796875 
L 19.671875 8.109375 
L 31.59375 8.109375 
Q 46.6875 8.109375 53.6875 14.9375 
Q 60.6875 21.78125 60.6875 36.53125 
Q 60.6875 51.171875 53.6875 57.984375 
Q 46.6875 64.796875 31.59375 64.796875 
z
M 9.8125 72.90625 
L 30.078125 72.90625 
Q 51.265625 72.90625 61.171875 64.09375 
Q 71.09375 55.28125 71.09375 36.53125 
Q 71.09375 17.671875 61.125 8.828125 
Q 51.171875 0 30.078125 0 
L 9.8125 0 
z
" id="DejaVuSans-68"/>
      <path d="M 52 44.1875 
Q 55.375 50.25 60.0625 53.125 
Q 64.75 56 71.09375 56 
Q 79.640625 56 84.28125 50.015625 
Q 88.921875 44.046875 88.921875 33.015625 
L 88.921875 0 
L 79.890625 0 
L 79.890625 32.71875 
Q 79.890625 40.578125 77.09375 44.375 
Q 74.3125 48.1875 68.609375 48.1875 
Q 61.625 48.1875 57.5625 43.546875 
Q 53.515625 38.921875 53.515625 30.90625 
L 53.515625 0 
L 44.484375 0 
L 44.484375 32.71875 
Q 44.484375 40.625 41.703125 44.40625 
Q 38.921875 48.1875 33.109375 48.1875 
Q 26.21875 48.1875 22.15625 43.53125 
Q 18.109375 38.875 18.109375 30.90625 
L 18.109375 0 
L 9.078125 0 
L 9.078125 54.6875 
L 18.109375 54.6875 
L 18.109375 46.1875 
Q 21.1875 51.21875 25.484375 53.609375 
Q 29.78125 56 35.6875 56 
Q 41.65625 56 45.828125 52.96875 
Q 50 49.953125 52 44.1875 
z
" id="DejaVuSans-109"/>
      <path d="M 45.40625 46.390625 
L 45.40625 75.984375 
L 54.390625 75.984375 
L 54.390625 0 
L 45.40625 0 
L 45.40625 8.203125 
Q 42.578125 3.328125 38.25 0.953125 
Q 33.9375 -1.421875 27.875 -1.421875 
Q 17.96875 -1.421875 11.734375 6.484375 
Q 5.515625 14.40625 5.515625 27.296875 
Q 5.515625 40.1875 11.734375 48.09375 
Q 17.96875 56 27.875 56 
Q 33.9375 56 38.25 53.625 
Q 42.578125 51.265625 45.40625 46.390625 
z
M 14.796875 27.296875 
Q 14.796875 17.390625 18.875 11.75 
Q 22.953125 6.109375 30.078125 6.109375 
Q 37.203125 6.109375 41.296875 11.75 
Q 45.40625 17.390625 45.40625 27.296875 
Q 45.40625 37.203125 41.296875 42.84375 
Q 37.203125 48.484375 30.078125 48.484375 
Q 22.953125 48.484375 18.875 42.84375 
Q 14.796875 37.203125 14.796875 27.296875 
z
" id="DejaVuSans-100"/>
      <path d="M 8.5 21.578125 
L 8.5 54.6875 
L 17.484375 54.6875 
L 17.484375 21.921875 
Q 17.484375 14.15625 20.5 10.265625 
Q 23.53125 6.390625 29.59375 6.390625 
Q 36.859375 6.390625 41.078125 11.03125 
Q 45.3125 15.671875 45.3125 23.6875 
L 45.3125 54.6875 
L 54.296875 54.6875 
L 54.296875 0 
L 45.3125 0 
L 45.3125 8.40625 
Q 42.046875 3.421875 37.71875 1 
Q 33.40625 -1.421875 27.6875 -1.421875 
Q 18.265625 -1.421875 13.375 4.4375 
Q 8.5 10.296875 8.5 21.578125 
z
M 31.109375 56 
z
" id="DejaVuSans-117"/>
     </defs>
     <g transform="translate(18.820312 203.394063)rotate(-90)scale(0.1 -0.1)">
      <use xlink:href="#DejaVuSans-71"/>
      <use x="77.490234" xlink:href="#DejaVuSans-114"/>
      <use x="118.572266" xlink:href="#DejaVuSans-111"/>
      <use x="179.753906" xlink:href="#DejaVuSans-115"/>
      <use x="231.853516" xlink:href="#DejaVuSans-115"/>
      <use x="283.953125" xlink:href="#DejaVuSans-32"/>
      <use x="315.740234" xlink:href="#DejaVuSans-68"/>
      <use x="392.742188" xlink:href="#DejaVuSans-111"/>
      <use x="453.923828" xlink:href="#DejaVuSans-109"/>
      <use x="551.335938" xlink:href="#DejaVuSans-101"/>
      <use x="612.859375" xlink:href="#DejaVuSans-115"/>
      <use x="664.958984" xlink:href="#DejaVuSans-116"/>
      <use x="704.167969" xlink:href="#DejaVuSans-105"/>
      <use x="731.951172" xlink:href="#DejaVuSans-99"/>
      <use x="786.931641" xlink:href="#DejaVuSans-32"/>
      <use x="818.71875" xlink:href="#DejaVuSans-80"/>
      <use x="879.005859" xlink:href="#DejaVuSans-114"/>
      <use x="920.087891" xlink:href="#DejaVuSans-111"/>
      <use x="981.269531" xlink:href="#DejaVuSans-100"/>
      <use x="1044.746094" xlink:href="#DejaVuSans-117"/>
      <use x="1108.125" xlink:href="#DejaVuSans-99"/>
      <use x="1163.105469" xlink:href="#DejaVuSans-116"/>
     </g>
    </g>
   </g>
   <g id="patch_3">
    <path d="M 54 252 
L 54 34.56 
" style="fill:none;stroke:#000000;stroke-linecap:square;stroke-linejoin:miter;stroke-width:0.8;"/>
   </g>
   <g id="patch_4">
    <path d="M 388.8 252 
L 388.8 34.56 
" style="fill:none;stroke:#000000;stroke-linecap:square;stroke-linejoin:miter;stroke-width:0.8;"/>
   </g>
   <g id="patch_5">
    <path d="M 54 252 
L 388.8 252 
" style="fill:none;stroke:#000000;stroke-linecap:square;stroke-linejoin:miter;stroke-width:0.8;"/>
   </g>
   <g id="patch_6">
    <path d="M 54 34.56 
L 388.8 34.56 
" style="fill:none;stroke:#000000;stroke-linecap:square;stroke-linejoin:miter;stroke-width:0.8;"/>
   </g>
   <g id="legend_1">
    <g id="patch_7">
     <path d="M 407.54 213.6975 
L 513.030625 213.6975 
Q 515.030625 213.6975 515.030625 211.6975 
L 515.030625 36.56 
Q 515.030625 34.56 513.030625 34.56 
L 407.54 34.56 
Q 405.54 34.56 405.54 36.56 
L 405.54 211.6975 
Q 405.54 213.6975 407.54 213.6975 
z
" style="fill:#ffffff;opacity:0.8;stroke:#cccccc;stroke-linejoin:miter;"/>
    </g>
    <g id="PathCollection_14">
     <defs>
      <path id="mb90563bd79" style="stroke:#ffffff;stroke-width:1.5;"/>
     </defs>
     <g>
      <use style="fill:#ffffff;stroke:#ffffff;stroke-width:1.5;" x="419.54" xlink:href="#mb90563bd79" y="43.533437"/>
     </g>
    </g>
    <g id="text_15">
     <!-- continent -->
     <g transform="translate(437.54 46.158437)scale(0.1 -0.1)">
      <use xlink:href="#DejaVuSans-99"/>
      <use x="54.980469" xlink:href="#DejaVuSans-111"/>
      <use x="116.162109" xlink:href="#DejaVuSans-110"/>
      <use x="179.541016" xlink:href="#DejaVuSans-116"/>
      <use x="218.75" xlink:href="#DejaVuSans-105"/>
      <use x="246.533203" xlink:href="#DejaVuSans-110"/>
      <use x="309.912109" xlink:href="#DejaVuSans-101"/>
      <use x="371.435547" xlink:href="#DejaVuSans-110"/>
      <use x="434.814453" xlink:href="#DejaVuSans-116"/>
     </g>
    </g>
    <g id="PathCollection_15">
     <defs>
      <path d="M 0 3 
C 0.795609 3 1.55874 2.683901 2.12132 2.12132 
C 2.683901 1.55874 3 0.795609 3 0 
C 3 -0.795609 2.683901 -1.55874 2.12132 -2.12132 
C 1.55874 -2.683901 0.795609 -3 0 -3 
C -0.795609 -3 -1.55874 -2.683901 -2.12132 -2.12132 
C -2.683901 -1.55874 -3 -0.795609 -3 0 
C -3 0.795609 -2.683901 1.55874 -2.12132 2.12132 
C -1.55874 2.683901 -0.795609 3 0 3 
z
" id="m201b5375bc" style="stroke:#1f77b4;"/>
     </defs>
     <g>
      <use style="fill:#1f77b4;stroke:#1f77b4;" x="419.54" xlink:href="#m201b5375bc" y="58.211563"/>
     </g>
    </g>
    <g id="text_16">
     <!-- Africa -->
     <defs>
      <path d="M 34.1875 63.1875 
L 20.796875 26.90625 
L 47.609375 26.90625 
z
M 28.609375 72.90625 
L 39.796875 72.90625 
L 67.578125 0 
L 57.328125 0 
L 50.6875 18.703125 
L 17.828125 18.703125 
L 11.1875 0 
L 0.78125 0 
z
" id="DejaVuSans-65"/>
      <path d="M 37.109375 75.984375 
L 37.109375 68.5 
L 28.515625 68.5 
Q 23.6875 68.5 21.796875 66.546875 
Q 19.921875 64.59375 19.921875 59.515625 
L 19.921875 54.6875 
L 34.71875 54.6875 
L 34.71875 47.703125 
L 19.921875 47.703125 
L 19.921875 0 
L 10.890625 0 
L 10.890625 47.703125 
L 2.296875 47.703125 
L 2.296875 54.6875 
L 10.890625 54.6875 
L 10.890625 58.5 
Q 10.890625 67.625 15.140625 71.796875 
Q 19.390625 75.984375 28.609375 75.984375 
z
" id="DejaVuSans-102"/>
      <path d="M 34.28125 27.484375 
Q 23.390625 27.484375 19.1875 25 
Q 14.984375 22.515625 14.984375 16.5 
Q 14.984375 11.71875 18.140625 8.90625 
Q 21.296875 6.109375 26.703125 6.109375 
Q 34.1875 6.109375 38.703125 11.40625 
Q 43.21875 16.703125 43.21875 25.484375 
L 43.21875 27.484375 
z
M 52.203125 31.203125 
L 52.203125 0 
L 43.21875 0 
L 43.21875 8.296875 
Q 40.140625 3.328125 35.546875 0.953125 
Q 30.953125 -1.421875 24.3125 -1.421875 
Q 15.921875 -1.421875 10.953125 3.296875 
Q 6 8.015625 6 15.921875 
Q 6 25.140625 12.171875 29.828125 
Q 18.359375 34.515625 30.609375 34.515625 
L 43.21875 34.515625 
L 43.21875 35.40625 
Q 43.21875 41.609375 39.140625 45 
Q 35.0625 48.390625 27.6875 48.390625 
Q 23 48.390625 18.546875 47.265625 
Q 14.109375 46.140625 10.015625 43.890625 
L 10.015625 52.203125 
Q 14.9375 54.109375 19.578125 55.046875 
Q 24.21875 56 28.609375 56 
Q 40.484375 56 46.34375 49.84375 
Q 52.203125 43.703125 52.203125 31.203125 
z
" id="DejaVuSans-97"/>
     </defs>
     <g transform="translate(437.54 60.836563)scale(0.1 -0.1)">
      <use xlink:href="#DejaVuSans-65"/>
      <use x="68.361328" xlink:href="#DejaVuSans-102"/>
      <use x="103.566406" xlink:href="#DejaVuSans-114"/>
      <use x="144.679688" xlink:href="#DejaVuSans-105"/>
      <use x="172.462891" xlink:href="#DejaVuSans-99"/>
      <use x="227.443359" xlink:href="#DejaVuSans-97"/>
     </g>
    </g>
    <g id="PathCollection_16">
     <defs>
      <path d="M 0 3 
C 0.795609 3 1.55874 2.683901 2.12132 2.12132 
C 2.683901 1.55874 3 0.795609 3 0 
C 3 -0.795609 2.683901 -1.55874 2.12132 -2.12132 
C 1.55874 -2.683901 0.795609 -3 0 -3 
C -0.795609 -3 -1.55874 -2.683901 -2.12132 -2.12132 
C -2.683901 -1.55874 -3 -0.795609 -3 0 
C -3 0.795609 -2.683901 1.55874 -2.12132 2.12132 
C -1.55874 2.683901 -0.795609 3 0 3 
z
" id="m9034e30514" style="stroke:#ff7f0e;"/>
     </defs>
     <g>
      <use style="fill:#ff7f0e;stroke:#ff7f0e;" x="419.54" xlink:href="#m9034e30514" y="72.889688"/>
     </g>
    </g>
    <g id="text_17">
     <!-- South America -->
     <defs>
      <path d="M 53.515625 70.515625 
L 53.515625 60.890625 
Q 47.90625 63.578125 42.921875 64.890625 
Q 37.9375 66.21875 33.296875 66.21875 
Q 25.25 66.21875 20.875 63.09375 
Q 16.5 59.96875 16.5 54.203125 
Q 16.5 49.359375 19.40625 46.890625 
Q 22.3125 44.4375 30.421875 42.921875 
L 36.375 41.703125 
Q 47.40625 39.59375 52.65625 34.296875 
Q 57.90625 29 57.90625 20.125 
Q 57.90625 9.515625 50.796875 4.046875 
Q 43.703125 -1.421875 29.984375 -1.421875 
Q 24.8125 -1.421875 18.96875 -0.25 
Q 13.140625 0.921875 6.890625 3.21875 
L 6.890625 13.375 
Q 12.890625 10.015625 18.65625 8.296875 
Q 24.421875 6.59375 29.984375 6.59375 
Q 38.421875 6.59375 43.015625 9.90625 
Q 47.609375 13.234375 47.609375 19.390625 
Q 47.609375 24.75 44.3125 27.78125 
Q 41.015625 30.8125 33.5 32.328125 
L 27.484375 33.5 
Q 16.453125 35.6875 11.515625 40.375 
Q 6.59375 45.0625 6.59375 53.421875 
Q 6.59375 63.09375 13.40625 68.65625 
Q 20.21875 74.21875 32.171875 74.21875 
Q 37.3125 74.21875 42.625 73.28125 
Q 47.953125 72.359375 53.515625 70.515625 
z
" id="DejaVuSans-83"/>
     </defs>
     <g transform="translate(437.54 75.514688)scale(0.1 -0.1)">
      <use xlink:href="#DejaVuSans-83"/>
      <use x="63.476562" xlink:href="#DejaVuSans-111"/>
      <use x="124.658203" xlink:href="#DejaVuSans-117"/>
      <use x="188.037109" xlink:href="#DejaVuSans-116"/>
      <use x="227.246094" xlink:href="#DejaVuSans-104"/>
      <use x="290.625" xlink:href="#DejaVuSans-32"/>
      <use x="322.412109" xlink:href="#DejaVuSans-65"/>
      <use x="390.820312" xlink:href="#DejaVuSans-109"/>
      <use x="488.232422" xlink:href="#DejaVuSans-101"/>
      <use x="549.755859" xlink:href="#DejaVuSans-114"/>
      <use x="590.869141" xlink:href="#DejaVuSans-105"/>
      <use x="618.652344" xlink:href="#DejaVuSans-99"/>
      <use x="673.632812" xlink:href="#DejaVuSans-97"/>
     </g>
    </g>
    <g id="PathCollection_17">
     <defs>
      <path d="M 0 3 
C 0.795609 3 1.55874 2.683901 2.12132 2.12132 
C 2.683901 1.55874 3 0.795609 3 0 
C 3 -0.795609 2.683901 -1.55874 2.12132 -2.12132 
C 1.55874 -2.683901 0.795609 -3 0 -3 
C -0.795609 -3 -1.55874 -2.683901 -2.12132 -2.12132 
C -2.683901 -1.55874 -3 -0.795609 -3 0 
C -3 0.795609 -2.683901 1.55874 -2.12132 2.12132 
C -1.55874 2.683901 -0.795609 3 0 3 
z
" id="m1068337429" style="stroke:#2ca02c;"/>
     </defs>
     <g>
      <use style="fill:#2ca02c;stroke:#2ca02c;" x="419.54" xlink:href="#m1068337429" y="87.567813"/>
     </g>
    </g>
    <g id="text_18">
     <!-- Asia -->
     <g transform="translate(437.54 90.192813)scale(0.1 -0.1)">
      <use xlink:href="#DejaVuSans-65"/>
      <use x="68.408203" xlink:href="#DejaVuSans-115"/>
      <use x="120.507812" xlink:href="#DejaVuSans-105"/>
      <use x="148.291016" xlink:href="#DejaVuSans-97"/>
     </g>
    </g>
    <g id="PathCollection_18">
     <defs>
      <path d="M 0 3 
C 0.795609 3 1.55874 2.683901 2.12132 2.12132 
C 2.683901 1.55874 3 0.795609 3 0 
C 3 -0.795609 2.683901 -1.55874 2.12132 -2.12132 
C 1.55874 -2.683901 0.795609 -3 0 -3 
C -0.795609 -3 -1.55874 -2.683901 -2.12132 -2.12132 
C -2.683901 -1.55874 -3 -0.795609 -3 0 
C -3 0.795609 -2.683901 1.55874 -2.12132 2.12132 
C -1.55874 2.683901 -0.795609 3 0 3 
z
" id="mc137ea1c5e" style="stroke:#d62728;"/>
     </defs>
     <g>
      <use style="fill:#d62728;stroke:#d62728;" x="419.54" xlink:href="#mc137ea1c5e" y="102.245938"/>
     </g>
    </g>
    <g id="text_19">
     <!-- Oceania -->
     <defs>
      <path d="M 39.40625 66.21875 
Q 28.65625 66.21875 22.328125 58.203125 
Q 16.015625 50.203125 16.015625 36.375 
Q 16.015625 22.609375 22.328125 14.59375 
Q 28.65625 6.59375 39.40625 6.59375 
Q 50.140625 6.59375 56.421875 14.59375 
Q 62.703125 22.609375 62.703125 36.375 
Q 62.703125 50.203125 56.421875 58.203125 
Q 50.140625 66.21875 39.40625 66.21875 
z
M 39.40625 74.21875 
Q 54.734375 74.21875 63.90625 63.9375 
Q 73.09375 53.65625 73.09375 36.375 
Q 73.09375 19.140625 63.90625 8.859375 
Q 54.734375 -1.421875 39.40625 -1.421875 
Q 24.03125 -1.421875 14.8125 8.828125 
Q 5.609375 19.09375 5.609375 36.375 
Q 5.609375 53.65625 14.8125 63.9375 
Q 24.03125 74.21875 39.40625 74.21875 
z
" id="DejaVuSans-79"/>
     </defs>
     <g transform="translate(437.54 104.870938)scale(0.1 -0.1)">
      <use xlink:href="#DejaVuSans-79"/>
      <use x="78.710938" xlink:href="#DejaVuSans-99"/>
      <use x="133.691406" xlink:href="#DejaVuSans-101"/>
      <use x="195.214844" xlink:href="#DejaVuSans-97"/>
      <use x="256.494141" xlink:href="#DejaVuSans-110"/>
      <use x="319.873047" xlink:href="#DejaVuSans-105"/>
      <use x="347.65625" xlink:href="#DejaVuSans-97"/>
     </g>
    </g>
    <g id="PathCollection_19">
     <defs>
      <path d="M 0 3 
C 0.795609 3 1.55874 2.683901 2.12132 2.12132 
C 2.683901 1.55874 3 0.795609 3 0 
C 3 -0.795609 2.683901 -1.55874 2.12132 -2.12132 
C 1.55874 -2.683901 0.795609 -3 0 -3 
C -0.795609 -3 -1.55874 -2.683901 -2.12132 -2.12132 
C -2.683901 -1.55874 -3 -0.795609 -3 0 
C -3 0.795609 -2.683901 1.55874 -2.12132 2.12132 
C -1.55874 2.683901 -0.795609 3 0 3 
z
" id="md313aa1a1a" style="stroke:#9467bd;"/>
     </defs>
     <g>
      <use style="fill:#9467bd;stroke:#9467bd;" x="419.54" xlink:href="#md313aa1a1a" y="116.924062"/>
     </g>
    </g>
    <g id="text_20">
     <!-- Europe -->
     <defs>
      <path d="M 9.8125 72.90625 
L 55.90625 72.90625 
L 55.90625 64.59375 
L 19.671875 64.59375 
L 19.671875 43.015625 
L 54.390625 43.015625 
L 54.390625 34.71875 
L 19.671875 34.71875 
L 19.671875 8.296875 
L 56.78125 8.296875 
L 56.78125 0 
L 9.8125 0 
z
" id="DejaVuSans-69"/>
      <path d="M 18.109375 8.203125 
L 18.109375 -20.796875 
L 9.078125 -20.796875 
L 9.078125 54.6875 
L 18.109375 54.6875 
L 18.109375 46.390625 
Q 20.953125 51.265625 25.265625 53.625 
Q 29.59375 56 35.59375 56 
Q 45.5625 56 51.78125 48.09375 
Q 58.015625 40.1875 58.015625 27.296875 
Q 58.015625 14.40625 51.78125 6.484375 
Q 45.5625 -1.421875 35.59375 -1.421875 
Q 29.59375 -1.421875 25.265625 0.953125 
Q 20.953125 3.328125 18.109375 8.203125 
z
M 48.6875 27.296875 
Q 48.6875 37.203125 44.609375 42.84375 
Q 40.53125 48.484375 33.40625 48.484375 
Q 26.265625 48.484375 22.1875 42.84375 
Q 18.109375 37.203125 18.109375 27.296875 
Q 18.109375 17.390625 22.1875 11.75 
Q 26.265625 6.109375 33.40625 6.109375 
Q 40.53125 6.109375 44.609375 11.75 
Q 48.6875 17.390625 48.6875 27.296875 
z
" id="DejaVuSans-112"/>
     </defs>
     <g transform="translate(437.54 119.549062)scale(0.1 -0.1)">
      <use xlink:href="#DejaVuSans-69"/>
      <use x="63.183594" xlink:href="#DejaVuSans-117"/>
      <use x="126.5625" xlink:href="#DejaVuSans-114"/>
      <use x="167.644531" xlink:href="#DejaVuSans-111"/>
      <use x="228.826172" xlink:href="#DejaVuSans-112"/>
      <use x="292.302734" xlink:href="#DejaVuSans-101"/>
     </g>
    </g>
    <g id="PathCollection_20">
     <defs>
      <path d="M 0 3 
C 0.795609 3 1.55874 2.683901 2.12132 2.12132 
C 2.683901 1.55874 3 0.795609 3 0 
C 3 -0.795609 2.683901 -1.55874 2.12132 -2.12132 
C 1.55874 -2.683901 0.795609 -3 0 -3 
C -0.795609 -3 -1.55874 -2.683901 -2.12132 -2.12132 
C -2.683901 -1.55874 -3 -0.795609 -3 0 
C -3 0.795609 -2.683901 1.55874 -2.12132 2.12132 
C -1.55874 2.683901 -0.795609 3 0 3 
z
" id="m6b2af21cdd" style="stroke:#8c564b;"/>
     </defs>
     <g>
      <use style="fill:#8c564b;stroke:#8c564b;" x="419.54" xlink:href="#m6b2af21cdd" y="131.602188"/>
     </g>
    </g>
    <g id="text_21">
     <!-- North America -->
     <defs>
      <path d="M 9.8125 72.90625 
L 23.09375 72.90625 
L 55.421875 11.921875 
L 55.421875 72.90625 
L 64.984375 72.90625 
L 64.984375 0 
L 51.703125 0 
L 19.390625 60.984375 
L 19.390625 0 
L 9.8125 0 
z
" id="DejaVuSans-78"/>
     </defs>
     <g transform="translate(437.54 134.227188)scale(0.1 -0.1)">
      <use xlink:href="#DejaVuSans-78"/>
      <use x="74.804688" xlink:href="#DejaVuSans-111"/>
      <use x="135.986328" xlink:href="#DejaVuSans-114"/>
      <use x="177.099609" xlink:href="#DejaVuSans-116"/>
      <use x="216.308594" xlink:href="#DejaVuSans-104"/>
      <use x="279.6875" xlink:href="#DejaVuSans-32"/>
      <use x="311.474609" xlink:href="#DejaVuSans-65"/>
      <use x="379.882812" xlink:href="#DejaVuSans-109"/>
      <use x="477.294922" xlink:href="#DejaVuSans-101"/>
      <use x="538.818359" xlink:href="#DejaVuSans-114"/>
      <use x="579.931641" xlink:href="#DejaVuSans-105"/>
      <use x="607.714844" xlink:href="#DejaVuSans-99"/>
      <use x="662.695312" xlink:href="#DejaVuSans-97"/>
     </g>
    </g>
    <g id="PathCollection_21">
     <g>
      <use style="fill:#ffffff;stroke:#ffffff;stroke-width:1.5;" x="419.54" xlink:href="#mb90563bd79" y="146.280312"/>
     </g>
    </g>
    <g id="text_22">
     <!-- pop -->
     <g transform="translate(437.54 148.905312)scale(0.1 -0.1)">
      <use xlink:href="#DejaVuSans-112"/>
      <use x="63.476562" xlink:href="#DejaVuSans-111"/>
      <use x="124.658203" xlink:href="#DejaVuSans-112"/>
     </g>
    </g>
    <g id="PathCollection_22">
     <defs>
      <path d="M 0 1.936492 
C 0.513564 1.936492 1.006162 1.732451 1.369306 1.369306 
C 1.732451 1.006162 1.936492 0.513564 1.936492 0 
C 1.936492 -0.513564 1.732451 -1.006162 1.369306 -1.369306 
C 1.006162 -1.732451 0.513564 -1.936492 0 -1.936492 
C -0.513564 -1.936492 -1.006162 -1.732451 -1.369306 -1.369306 
C -1.732451 -1.006162 -1.936492 -0.513564 -1.936492 0 
C -1.936492 0.513564 -1.732451 1.006162 -1.369306 1.369306 
C -1.006162 1.732451 -0.513564 1.936492 0 1.936492 
z
" id="m5b42c21105" style="stroke:#333333;"/>
     </defs>
     <g>
      <use style="fill:#333333;stroke:#333333;" x="419.54" xlink:href="#m5b42c21105" y="160.958438"/>
     </g>
    </g>
    <g id="text_23">
     <!-- 0.0 -->
     <defs>
      <path d="M 10.6875 12.40625 
L 21 12.40625 
L 21 0 
L 10.6875 0 
z
" id="DejaVuSans-46"/>
     </defs>
     <g transform="translate(437.54 163.583438)scale(0.1 -0.1)">
      <use xlink:href="#DejaVuSans-48"/>
      <use x="63.623047" xlink:href="#DejaVuSans-46"/>
      <use x="95.410156" xlink:href="#DejaVuSans-48"/>
     </g>
    </g>
    <g id="PathCollection_23">
     <defs>
      <path d="M 0 6.188064 
C 1.641094 6.188064 3.215193 5.53605 4.375622 4.375622 
C 5.53605 3.215193 6.188064 1.641094 6.188064 0 
C 6.188064 -1.641094 5.53605 -3.215193 4.375622 -4.375622 
C 3.215193 -5.53605 1.641094 -6.188064 0 -6.188064 
C -1.641094 -6.188064 -3.215193 -5.53605 -4.375622 -4.375622 
C -5.53605 -3.215193 -6.188064 -1.641094 -6.188064 0 
C -6.188064 1.641094 -5.53605 3.215193 -4.375622 4.375622 
C -3.215193 5.53605 -1.641094 6.188064 0 6.188064 
z
" id="m021dab4728" style="stroke:#333333;"/>
     </defs>
     <g>
      <use style="fill:#333333;stroke:#333333;" x="419.54" xlink:href="#m021dab4728" y="175.636562"/>
     </g>
    </g>
    <g id="text_24">
     <!-- 0.5 -->
     <g transform="translate(437.54 178.261562)scale(0.1 -0.1)">
      <use xlink:href="#DejaVuSans-48"/>
      <use x="63.623047" xlink:href="#DejaVuSans-46"/>
      <use x="95.410156" xlink:href="#DejaVuSans-53"/>
     </g>
    </g>
    <g id="PathCollection_24">
     <defs>
      <path d="M 0 8.535424 
C 2.263621 8.535424 4.434834 7.636078 6.035456 6.035456 
C 7.636078 4.434834 8.535424 2.263621 8.535424 0 
C 8.535424 -2.263621 7.636078 -4.434834 6.035456 -6.035456 
C 4.434834 -7.636078 2.263621 -8.535424 0 -8.535424 
C -2.263621 -8.535424 -4.434834 -7.636078 -6.035456 -6.035456 
C -7.636078 -4.434834 -8.535424 -2.263621 -8.535424 0 
C -8.535424 2.263621 -7.636078 4.434834 -6.035456 6.035456 
C -4.434834 7.636078 -2.263621 8.535424 0 8.535424 
z
" id="m8c104f25d0" style="stroke:#333333;"/>
     </defs>
     <g>
      <use style="fill:#333333;stroke:#333333;" x="419.54" xlink:href="#m8c104f25d0" y="190.314687"/>
     </g>
    </g>
    <g id="text_25">
     <!-- 1.0 -->
     <g transform="translate(437.54 192.939687)scale(0.1 -0.1)">
      <use xlink:href="#DejaVuSans-49"/>
      <use x="63.623047" xlink:href="#DejaVuSans-46"/>
      <use x="95.410156" xlink:href="#DejaVuSans-48"/>
     </g>
    </g>
    <g id="PathCollection_25">
     <defs>
      <path d="M 0 10 
C 2.652031 10 5.195799 8.946337 7.071068 7.071068 
C 8.946337 5.195799 10 2.652031 10 0 
C 10 -2.652031 8.946337 -5.195799 7.071068 -7.071068 
C 5.195799 -8.946337 2.652031 -10 0 -10 
C -2.652031 -10 -5.195799 -8.946337 -7.071068 -7.071068 
C -8.946337 -5.195799 -10 -2.652031 -10 0 
C -10 2.652031 -8.946337 5.195799 -7.071068 7.071068 
C -5.195799 8.946337 -2.652031 10 0 10 
z
" id="m65b3fcb972" style="stroke:#333333;"/>
     </defs>
     <g>
      <use style="fill:#333333;stroke:#333333;" x="419.54" xlink:href="#m65b3fcb972" y="204.992812"/>
     </g>
    </g>
    <g id="text_26">
     <!-- 1.5 -->
     <g transform="translate(437.54 207.617812)scale(0.1 -0.1)">
      <use xlink:href="#DejaVuSans-49"/>
      <use x="63.623047" xlink:href="#DejaVuSans-46"/>
      <use x="95.410156" xlink:href="#DejaVuSans-53"/>
     </g>
    </g>
   </g>
  </g>
 </g>
 <defs>
  <clipPath id="p1253943258">
   <rect height="217.44" width="334.8" x="54" y="34.56"/>
  </clipPath>
 </defs>
</svg>
