<?xml version="1.0" encoding="utf-8" standalone="no"?>
<!DOCTYPE svg PUBLIC "-//W3C//DTD SVG 1.1//EN"
  "http://www.w3.org/Graphics/SVG/1.1/DTD/svg11.dtd">
<!-- Created with matplotlib (https://matplotlib.org/) -->
<svg height="432pt" version="1.1" viewBox="0 0 576 432" width="576pt" xmlns="http://www.w3.org/2000/svg" xmlns:xlink="http://www.w3.org/1999/xlink">
 <defs>
  <style type="text/css">
*{stroke-linecap:butt;stroke-linejoin:round;}
  </style>
 </defs>
 <g id="figure_1">
  <g id="patch_1">
   <path d="M 0 432 
L 576 432 
L 576 0 
L 0 0 
z
" style="fill:#ffffff;"/>
  </g>
  <g id="axes_1">
   <g id="patch_2">
    <path d="M 72 378 
L 518.4 378 
L 518.4 51.84 
L 72 51.84 
z
" style="fill:#ffffff;"/>
   </g>
   <g id="matplotlib.axis_1">
    <g id="xtick_1">
     <g id="line2d_1">
      <defs>
       <path d="M 0 0 
L 0 3.5 
" id="mcb16e3ead1" style="stroke:#000000;stroke-width:0.8;"/>
      </defs>
      <g>
       <use style="stroke:#000000;stroke-width:0.8;" x="72" xlink:href="#mcb16e3ead1" y="378"/>
      </g>
     </g>
     <g id="text_1">
      <!-- 0.0 -->
      <defs>
       <path d="M 31.78125 66.40625 
Q 24.171875 66.40625 20.328125 58.90625 
Q 16.5 51.421875 16.5 36.375 
Q 16.5 21.390625 20.328125 13.890625 
Q 24.171875 6.390625 31.78125 6.390625 
Q 39.453125 6.390625 43.28125 13.890625 
Q 47.125 21.390625 47.125 36.375 
Q 47.125 51.421875 43.28125 58.90625 
Q 39.453125 66.40625 31.78125 66.40625 
z
M 31.78125 74.21875 
Q 44.046875 74.21875 50.515625 64.515625 
Q 56.984375 54.828125 56.984375 36.375 
Q 56.984375 17.96875 50.515625 8.265625 
Q 44.046875 -1.421875 31.78125 -1.421875 
Q 19.53125 -1.421875 13.0625 8.265625 
Q 6.59375 17.96875 6.59375 36.375 
Q 6.59375 54.828125 13.0625 64.515625 
Q 19.53125 74.21875 31.78125 74.21875 
z
" id="DejaVuSans-48"/>
       <path d="M 10.6875 12.40625 
L 21 12.40625 
L 21 0 
L 10.6875 0 
z
" id="DejaVuSans-46"/>
      </defs>
      <g transform="translate(64.048438 392.598437)scale(0.1 -0.1)">
       <use xlink:href="#DejaVuSans-48"/>
       <use x="63.623047" xlink:href="#DejaVuSans-46"/>
       <use x="95.410156" xlink:href="#DejaVuSans-48"/>
      </g>
     </g>
    </g>
    <g id="xtick_2">
     <g id="line2d_2">
      <g>
       <use style="stroke:#000000;stroke-width:0.8;" x="153.163636" xlink:href="#mcb16e3ead1" y="378"/>
      </g>
     </g>
     <g id="text_2">
      <!-- 0.2 -->
      <defs>
       <path d="M 19.1875 8.296875 
L 53.609375 8.296875 
L 53.609375 0 
L 7.328125 0 
L 7.328125 8.296875 
Q 12.9375 14.109375 22.625 23.890625 
Q 32.328125 33.6875 34.8125 36.53125 
Q 39.546875 41.84375 41.421875 45.53125 
Q 43.3125 49.21875 43.3125 52.78125 
Q 43.3125 58.59375 39.234375 62.25 
Q 35.15625 65.921875 28.609375 65.921875 
Q 23.96875 65.921875 18.8125 64.3125 
Q 13.671875 62.703125 7.8125 59.421875 
L 7.8125 69.390625 
Q 13.765625 71.78125 18.9375 73 
Q 24.125 74.21875 28.421875 74.21875 
Q 39.75 74.21875 46.484375 68.546875 
Q 53.21875 62.890625 53.21875 53.421875 
Q 53.21875 48.921875 51.53125 44.890625 
Q 49.859375 40.875 45.40625 35.40625 
Q 44.1875 33.984375 37.640625 27.21875 
Q 31.109375 20.453125 19.1875 8.296875 
z
" id="DejaVuSans-50"/>
      </defs>
      <g transform="translate(145.212074 392.598437)scale(0.1 -0.1)">
       <use xlink:href="#DejaVuSans-48"/>
       <use x="63.623047" xlink:href="#DejaVuSans-46"/>
       <use x="95.410156" xlink:href="#DejaVuSans-50"/>
      </g>
     </g>
    </g>
    <g id="xtick_3">
     <g id="line2d_3">
      <g>
       <use style="stroke:#000000;stroke-width:0.8;" x="234.327273" xlink:href="#mcb16e3ead1" y="378"/>
      </g>
     </g>
     <g id="text_3">
      <!-- 0.4 -->
      <defs>
       <path d="M 37.796875 64.3125 
L 12.890625 25.390625 
L 37.796875 25.390625 
z
M 35.203125 72.90625 
L 47.609375 72.90625 
L 47.609375 25.390625 
L 58.015625 25.390625 
L 58.015625 17.1875 
L 47.609375 17.1875 
L 47.609375 0 
L 37.796875 0 
L 37.796875 17.1875 
L 4.890625 17.1875 
L 4.890625 26.703125 
z
" id="DejaVuSans-52"/>
      </defs>
      <g transform="translate(226.37571 392.598437)scale(0.1 -0.1)">
       <use xlink:href="#DejaVuSans-48"/>
       <use x="63.623047" xlink:href="#DejaVuSans-46"/>
       <use x="95.410156" xlink:href="#DejaVuSans-52"/>
      </g>
     </g>
    </g>
    <g id="xtick_4">
     <g id="line2d_4">
      <g>
       <use style="stroke:#000000;stroke-width:0.8;" x="315.490909" xlink:href="#mcb16e3ead1" y="378"/>
      </g>
     </g>
     <g id="text_4">
      <!-- 0.6 -->
      <defs>
       <path d="M 33.015625 40.375 
Q 26.375 40.375 22.484375 35.828125 
Q 18.609375 31.296875 18.609375 23.390625 
Q 18.609375 15.53125 22.484375 10.953125 
Q 26.375 6.390625 33.015625 6.390625 
Q 39.65625 6.390625 43.53125 10.953125 
Q 47.40625 15.53125 47.40625 23.390625 
Q 47.40625 31.296875 43.53125 35.828125 
Q 39.65625 40.375 33.015625 40.375 
z
M 52.59375 71.296875 
L 52.59375 62.3125 
Q 48.875 64.0625 45.09375 64.984375 
Q 41.3125 65.921875 37.59375 65.921875 
Q 27.828125 65.921875 22.671875 59.328125 
Q 17.53125 52.734375 16.796875 39.40625 
Q 19.671875 43.65625 24.015625 45.921875 
Q 28.375 48.1875 33.59375 48.1875 
Q 44.578125 48.1875 50.953125 41.515625 
Q 57.328125 34.859375 57.328125 23.390625 
Q 57.328125 12.15625 50.6875 5.359375 
Q 44.046875 -1.421875 33.015625 -1.421875 
Q 20.359375 -1.421875 13.671875 8.265625 
Q 6.984375 17.96875 6.984375 36.375 
Q 6.984375 53.65625 15.1875 63.9375 
Q 23.390625 74.21875 37.203125 74.21875 
Q 40.921875 74.21875 44.703125 73.484375 
Q 48.484375 72.75 52.59375 71.296875 
z
" id="DejaVuSans-54"/>
      </defs>
      <g transform="translate(307.539347 392.598437)scale(0.1 -0.1)">
       <use xlink:href="#DejaVuSans-48"/>
       <use x="63.623047" xlink:href="#DejaVuSans-46"/>
       <use x="95.410156" xlink:href="#DejaVuSans-54"/>
      </g>
     </g>
    </g>
    <g id="xtick_5">
     <g id="line2d_5">
      <g>
       <use style="stroke:#000000;stroke-width:0.8;" x="396.654545" xlink:href="#mcb16e3ead1" y="378"/>
      </g>
     </g>
     <g id="text_5">
      <!-- 0.8 -->
      <defs>
       <path d="M 31.78125 34.625 
Q 24.75 34.625 20.71875 30.859375 
Q 16.703125 27.09375 16.703125 20.515625 
Q 16.703125 13.921875 20.71875 10.15625 
Q 24.75 6.390625 31.78125 6.390625 
Q 38.8125 6.390625 42.859375 10.171875 
Q 46.921875 13.96875 46.921875 20.515625 
Q 46.921875 27.09375 42.890625 30.859375 
Q 38.875 34.625 31.78125 34.625 
z
M 21.921875 38.8125 
Q 15.578125 40.375 12.03125 44.71875 
Q 8.5 49.078125 8.5 55.328125 
Q 8.5 64.0625 14.71875 69.140625 
Q 20.953125 74.21875 31.78125 74.21875 
Q 42.671875 74.21875 48.875 69.140625 
Q 55.078125 64.0625 55.078125 55.328125 
Q 55.078125 49.078125 51.53125 44.71875 
Q 48 40.375 41.703125 38.8125 
Q 48.828125 37.15625 52.796875 32.3125 
Q 56.78125 27.484375 56.78125 20.515625 
Q 56.78125 9.90625 50.3125 4.234375 
Q 43.84375 -1.421875 31.78125 -1.421875 
Q 19.734375 -1.421875 13.25 4.234375 
Q 6.78125 9.90625 6.78125 20.515625 
Q 6.78125 27.484375 10.78125 32.3125 
Q 14.796875 37.15625 21.921875 38.8125 
z
M 18.3125 54.390625 
Q 18.3125 48.734375 21.84375 45.5625 
Q 25.390625 42.390625 31.78125 42.390625 
Q 38.140625 42.390625 41.71875 45.5625 
Q 45.3125 48.734375 45.3125 54.390625 
Q 45.3125 60.0625 41.71875 63.234375 
Q 38.140625 66.40625 31.78125 66.40625 
Q 25.390625 66.40625 21.84375 63.234375 
Q 18.3125 60.0625 18.3125 54.390625 
z
" id="DejaVuSans-56"/>
      </defs>
      <g transform="translate(388.702983 392.598437)scale(0.1 -0.1)">
       <use xlink:href="#DejaVuSans-48"/>
       <use x="63.623047" xlink:href="#DejaVuSans-46"/>
       <use x="95.410156" xlink:href="#DejaVuSans-56"/>
      </g>
     </g>
    </g>
    <g id="xtick_6">
     <g id="line2d_6">
      <g>
       <use style="stroke:#000000;stroke-width:0.8;" x="477.818182" xlink:href="#mcb16e3ead1" y="378"/>
      </g>
     </g>
     <g id="text_6">
      <!-- 1.0 -->
      <defs>
       <path d="M 12.40625 8.296875 
L 28.515625 8.296875 
L 28.515625 63.921875 
L 10.984375 60.40625 
L 10.984375 69.390625 
L 28.421875 72.90625 
L 38.28125 72.90625 
L 38.28125 8.296875 
L 54.390625 8.296875 
L 54.390625 0 
L 12.40625 0 
z
" id="DejaVuSans-49"/>
      </defs>
      <g transform="translate(469.866619 392.598437)scale(0.1 -0.1)">
       <use xlink:href="#DejaVuSans-49"/>
       <use x="63.623047" xlink:href="#DejaVuSans-46"/>
       <use x="95.410156" xlink:href="#DejaVuSans-48"/>
      </g>
     </g>
    </g>
   </g>
   <g id="matplotlib.axis_2">
    <g id="ytick_1">
     <g id="line2d_7">
      <defs>
       <path d="M 0 0 
L -3.5 0 
" id="m5f8e46d34b" style="stroke:#000000;stroke-width:0.8;"/>
      </defs>
      <g>
       <use style="stroke:#000000;stroke-width:0.8;" x="72" xlink:href="#m5f8e46d34b" y="378"/>
      </g>
     </g>
     <g id="text_7">
      <!-- −0.2 -->
      <defs>
       <path d="M 10.59375 35.5 
L 73.1875 35.5 
L 73.1875 27.203125 
L 10.59375 27.203125 
z
" id="DejaVuSans-8722"/>
      </defs>
      <g transform="translate(40.717187 381.799219)scale(0.1 -0.1)">
       <use xlink:href="#DejaVuSans-8722"/>
       <use x="83.789062" xlink:href="#DejaVuSans-48"/>
       <use x="147.412109" xlink:href="#DejaVuSans-46"/>
       <use x="179.199219" xlink:href="#DejaVuSans-50"/>
      </g>
     </g>
    </g>
    <g id="ytick_2">
     <g id="line2d_8">
      <g>
       <use style="stroke:#000000;stroke-width:0.8;" x="72" xlink:href="#m5f8e46d34b" y="323.64"/>
      </g>
     </g>
     <g id="text_8">
      <!-- 0.0 -->
      <g transform="translate(49.096875 327.439219)scale(0.1 -0.1)">
       <use xlink:href="#DejaVuSans-48"/>
       <use x="63.623047" xlink:href="#DejaVuSans-46"/>
       <use x="95.410156" xlink:href="#DejaVuSans-48"/>
      </g>
     </g>
    </g>
    <g id="ytick_3">
     <g id="line2d_9">
      <g>
       <use style="stroke:#000000;stroke-width:0.8;" x="72" xlink:href="#m5f8e46d34b" y="269.28"/>
      </g>
     </g>
     <g id="text_9">
      <!-- 0.2 -->
      <g transform="translate(49.096875 273.079219)scale(0.1 -0.1)">
       <use xlink:href="#DejaVuSans-48"/>
       <use x="63.623047" xlink:href="#DejaVuSans-46"/>
       <use x="95.410156" xlink:href="#DejaVuSans-50"/>
      </g>
     </g>
    </g>
    <g id="ytick_4">
     <g id="line2d_10">
      <g>
       <use style="stroke:#000000;stroke-width:0.8;" x="72" xlink:href="#m5f8e46d34b" y="214.92"/>
      </g>
     </g>
     <g id="text_10">
      <!-- 0.4 -->
      <g transform="translate(49.096875 218.719219)scale(0.1 -0.1)">
       <use xlink:href="#DejaVuSans-48"/>
       <use x="63.623047" xlink:href="#DejaVuSans-46"/>
       <use x="95.410156" xlink:href="#DejaVuSans-52"/>
      </g>
     </g>
    </g>
    <g id="ytick_5">
     <g id="line2d_11">
      <g>
       <use style="stroke:#000000;stroke-width:0.8;" x="72" xlink:href="#m5f8e46d34b" y="160.56"/>
      </g>
     </g>
     <g id="text_11">
      <!-- 0.6 -->
      <g transform="translate(49.096875 164.359219)scale(0.1 -0.1)">
       <use xlink:href="#DejaVuSans-48"/>
       <use x="63.623047" xlink:href="#DejaVuSans-46"/>
       <use x="95.410156" xlink:href="#DejaVuSans-54"/>
      </g>
     </g>
    </g>
    <g id="ytick_6">
     <g id="line2d_12">
      <g>
       <use style="stroke:#000000;stroke-width:0.8;" x="72" xlink:href="#m5f8e46d34b" y="106.2"/>
      </g>
     </g>
     <g id="text_12">
      <!-- 0.8 -->
      <g transform="translate(49.096875 109.999219)scale(0.1 -0.1)">
       <use xlink:href="#DejaVuSans-48"/>
       <use x="63.623047" xlink:href="#DejaVuSans-46"/>
       <use x="95.410156" xlink:href="#DejaVuSans-56"/>
      </g>
     </g>
    </g>
    <g id="ytick_7">
     <g id="line2d_13">
      <g>
       <use style="stroke:#000000;stroke-width:0.8;" x="72" xlink:href="#m5f8e46d34b" y="51.84"/>
      </g>
     </g>
     <g id="text_13">
      <!-- 1.0 -->
      <g transform="translate(49.096875 55.639219)scale(0.1 -0.1)">
       <use xlink:href="#DejaVuSans-49"/>
       <use x="63.623047" xlink:href="#DejaVuSans-46"/>
       <use x="95.410156" xlink:href="#DejaVuSans-48"/>
      </g>
     </g>
    </g>
   </g>
   <g id="line2d_14">
    <path clip-path="url(#p59c509b868)" d="M 72.004761 336.446047 
L 72.004761 348.808193 
L 72.004761 346.73064 
L 72.005713 355.734934 
L 72.006665 355.645829 
L 72.007617 320.585358 
L 72.010473 301.413715 
L 72.009521 337.365236 
L 72.009521 337.806071 
L 72.010473 336.413219 
L 72.010473 336.371012 
L 72.009521 355.763073 
L 72.009521 345.675449 
L 72.006665 292.742392 
L 72.007617 328.351562 
L 72.007617 331.784449 
L 72.008569 359.130304 
L 72.008569 353.788693 
L 72.007617 391.644248 
L 72.006665 342.364495 
L 72.003808 318.836086 
L 72.003808 357.714003 
L 72.003808 361.376687 
L 72.002856 372.913439 
L 72.003808 377.054477 
L 72.021898 389.721456 
L 72.021898 347.935902 
L 72.021898 327.249474 
L 72.038084 355.251891 
L 72.038084 346.163182 
L 72.042845 344.925091 
L 72.042845 382.635264 
L 72.048557 394.603471 
L 72.051414 355.528586 
L 72.070456 318.371802 
L 72.083785 341.37965 
L 72.104732 357.512344 
L 72.137103 369.682211 
L 72.206607 387.193688 
L 72.288488 377.18579 
L 72.378938 343.011679 
L 72.494143 348.719088 
L 72.667427 363.566794 
L 72.925447 353.615173 
L 73.192989 358.197046 
L 73.526226 361.812833 
L 74.00704 340.080593 
L 74.74397 322.972434 
L 75.508512 315.764309 
L 76.339701 321.631169 
L 78.000174 328.131144 
L 80.812696 314.479321 
L 85.345674 287.621199 
L 90.362323 285.839099 
L 97.053726 270.921047 
L 104.992388 241.277222 
L 115.499834 218.353789 
L 123.609875 233.314049 
L 136.630881 221.871092 
L 152.289222 227.06263 
L 169.602323 210.704829 
L 187.884669 191.547254 
L 204.581757 182.214679 
L 224.297975 189.873018 
L 246.417309 196.541824 
L 269.377353 202.535307 
L 292.212671 189.197696 
L 317.968099 187.387458 
L 343.816834 170.452819 
L 359.944563 157.359074 
L 378.344018 165.899085 
L 399.122786 176.507269 
L 417.555564 172.173952 
L 433.840391 166.222677 
L 449.866244 173.768463 
L 457.875363 166.766686 
L 466.691867 134.10736 
L 469.955688 147.351176 
L 471.78754 176.404095 
L 474.686704 179.630634 
L 477.398303 175.60684 
L 475.88255 165.322247 
L 474.597206 146.206881 
L 473.838377 147.229243 
L 471.46192 151.74546 
L 477.818182 169.838464 
L 462.836789 173.163487 
L 455.831191 170.832688 
L 442.335083 168.173607 
L 461.508601 170.893654 
L 460.782143 153.977774 
L 458.419016 163.31504 
L 455.762639 182.106815 
L 453.075795 174.997174 
L 451.409609 176.891827 
L 454.382085 196.79976 
L 450.92213 182.946277 
L 451.275362 171.916017 
L 446.065436 175.630288 
L 433.26151 184.625203 
L 439.488286 186.238473 
L 441.226832 207.764364 
L 446.563388 196.945141 
L 424.743967 183.6216 
L 418.461017 158.583096 
L 414.248899 176.272782 
L 412.264709 185.694463 
L 406.034126 202.48372 
L 403.392983 204.401823 
L 395.350541 206.179233 
L 390.779478 192.246025 
L 384.972582 175.484906 
" style="fill:none;stroke:#000000;stroke-linecap:square;stroke-width:1.5;"/>
   </g>
   <g id="patch_3">
    <path d="M 72 378 
L 72 51.84 
" style="fill:none;stroke:#000000;stroke-linecap:square;stroke-linejoin:miter;stroke-width:0.8;"/>
   </g>
   <g id="patch_4">
    <path d="M 518.4 378 
L 518.4 51.84 
" style="fill:none;stroke:#000000;stroke-linecap:square;stroke-linejoin:miter;stroke-width:0.8;"/>
   </g>
   <g id="patch_5">
    <path d="M 72 378 
L 518.4 378 
" style="fill:none;stroke:#000000;stroke-linecap:square;stroke-linejoin:miter;stroke-width:0.8;"/>
   </g>
   <g id="patch_6">
    <path d="M 72 51.84 
L 518.4 51.84 
" style="fill:none;stroke:#000000;stroke-linecap:square;stroke-linejoin:miter;stroke-width:0.8;"/>
   </g>
   <g id="patch_7">
    <path d="M 75.504761 322.905895 
Q 73.754761 326.405895 72.004761 329.905895 
Q 70.254761 326.405895 68.504761 322.905895 
z
" style="stroke:#000000;stroke-linecap:round;"/>
   </g>
   <g id="patch_8">
    <path d="M 75.504761 338.7042 
Q 73.754761 342.2042 72.004761 345.7042 
Q 70.254761 342.2042 68.504761 338.7042 
z
" style="stroke:#000000;stroke-linecap:round;"/>
   </g>
   <g id="patch_9">
    <path d="M 68.506516 361.122378 
Q 70.256611 357.622426 72.006706 354.122473 
Q 73.756611 357.622521 75.506516 361.122568 
z
" style="stroke:#000000;stroke-linecap:round;"/>
   </g>
   <g id="patch_10">
    <path d="M 68.506945 345.324074 
Q 70.25704 341.824121 72.007135 338.324169 
Q 73.75704 341.824216 75.506945 345.324264 
z
" style="stroke:#000000;stroke-linecap:round;"/>
   </g>
   <g id="patch_11">
    <path d="M 68.507374 329.525769 
Q 70.257469 326.025816 72.007564 322.525864 
Q 73.757469 326.025912 75.507374 329.525959 
z
" style="stroke:#000000;stroke-linecap:round;"/>
   </g>
   <g id="patch_12">
    <path d="M 68.508639 313.727038 
Q 70.25916 310.227299 72.009681 306.72756 
Q 73.75916 310.22782 75.508639 313.728081 
z
" style="stroke:#000000;stroke-linecap:round;"/>
   </g>
   <g id="patch_13">
    <path d="M 75.510381 304.898267 
Q 73.760288 308.398221 72.010196 311.898174 
Q 70.260288 308.398128 68.510381 304.898082 
z
" style="stroke:#000000;stroke-linecap:round;"/>
   </g>
   <g id="patch_14">
    <path d="M 75.509963 320.696572 
Q 73.75987 324.196525 72.009777 327.696479 
Q 70.25987 324.196433 68.509963 320.696386 
z
" style="stroke:#000000;stroke-linecap:round;"/>
   </g>
   <g id="patch_15">
    <path d="M 75.510608 333.624836 
Q 73.760436 337.12475 72.010264 340.624665 
Q 70.260436 337.124579 68.510608 333.624493 
z
" style="stroke:#000000;stroke-linecap:round;"/>
   </g>
   <g id="patch_16">
    <path d="M 75.509832 349.423141 
Q 73.759661 352.923055 72.009489 356.422969 
Q 70.259661 352.922883 68.509832 349.422797 
z
" style="stroke:#000000;stroke-linecap:round;"/>
   </g>
   <g id="patch_17">
    <path d="M 68.509555 346.30506 
Q 70.259366 342.804966 72.009177 339.304872 
Q 73.759366 342.804777 75.509555 346.304683 
z
" style="stroke:#000000;stroke-linecap:round;"/>
   </g>
   <g id="patch_18">
    <path d="M 68.508703 330.506756 
Q 70.258514 327.006661 72.008325 323.506567 
Q 73.758514 327.006473 75.508703 330.506378 
z
" style="stroke:#000000;stroke-linecap:round;"/>
   </g>
   <g id="patch_19">
    <path d="M 68.50785 314.708451 
Q 70.257661 311.208357 72.007472 307.708263 
Q 73.757661 311.208168 75.50785 314.708074 
z
" style="stroke:#000000;stroke-linecap:round;"/>
   </g>
   <g id="patch_20">
    <path d="M 68.506998 298.910147 
Q 70.256809 295.410052 72.00662 291.909958 
Q 73.756809 295.409864 75.506998 298.909769 
z
" style="stroke:#000000;stroke-linecap:round;"/>
   </g>
   <g id="patch_21">
    <path d="M 75.506922 302.373036 
Q 73.757016 305.873083 72.007109 309.37313 
Q 70.257016 305.873177 68.506922 302.373223 
z
" style="stroke:#000000;stroke-linecap:round;"/>
   </g>
   <g id="patch_22">
    <path d="M 75.507345 318.171341 
Q 73.757438 321.671388 72.007532 325.171434 
Q 70.257438 321.671481 68.507345 318.171528 
z
" style="stroke:#000000;stroke-linecap:round;"/>
   </g>
   <g id="patch_23">
    <path d="M 75.507693 333.969617 
Q 73.757815 337.469678 72.007937 340.969739 
Q 70.257815 337.4698 68.507693 333.969861 
z
" style="stroke:#000000;stroke-linecap:round;"/>
   </g>
   <g id="patch_24">
    <path d="M 75.508243 349.767922 
Q 73.758365 353.267983 72.008487 356.768044 
Q 70.258365 353.268104 68.508243 349.768165 
z
" style="stroke:#000000;stroke-linecap:round;"/>
   </g>
   <g id="patch_25">
    <path d="M 75.508541 354.883216 
Q 73.758453 358.383172 72.008365 361.883128 
Q 70.258453 358.383084 68.508541 354.88304 
z
" style="stroke:#000000;stroke-linecap:round;"/>
   </g>
   <g id="patch_26">
    <path d="M 75.508144 370.681521 
Q 73.758056 374.181477 72.007968 377.681433 
Q 70.258056 374.181389 68.508144 370.681345 
z
" style="stroke:#000000;stroke-linecap:round;"/>
   </g>
   <g id="patch_27">
    <path d="M 68.507411 381.010521 
Q 70.257344 377.510487 72.007276 374.010454 
Q 73.757344 377.51042 75.507411 381.010386 
z
" style="stroke:#000000;stroke-linecap:round;"/>
   </g>
   <g id="patch_28">
    <path d="M 68.507106 365.212217 
Q 70.257039 361.712183 72.006971 358.212149 
Q 73.757039 361.712115 75.507106 365.212081 
z
" style="stroke:#000000;stroke-linecap:round;"/>
   </g>
   <g id="patch_29">
    <path d="M 68.506801 349.413912 
Q 70.256733 345.913878 72.006666 342.413844 
Q 73.756733 345.913811 75.506801 349.413777 
z
" style="stroke:#000000;stroke-linecap:round;"/>
   </g>
   <g id="patch_30">
    <path d="M 68.505603 333.615965 
Q 70.255178 330.115752 72.004753 326.61554 
Q 73.755178 330.115328 75.505603 333.615115 
z
" style="stroke:#000000;stroke-linecap:round;"/>
   </g>
   <g id="patch_31">
    <path d="M 75.503808 319.854937 
Q 73.753808 323.354937 72.003808 326.854937 
Q 70.253808 323.354937 68.503808 319.854937 
z
" style="stroke:#000000;stroke-linecap:round;"/>
   </g>
   <g id="patch_32">
    <path d="M 75.503808 335.653242 
Q 73.753808 339.153242 72.003808 342.653242 
Q 70.253808 339.153242 68.503808 335.653242 
z
" style="stroke:#000000;stroke-linecap:round;"/>
   </g>
   <g id="patch_33">
    <path d="M 75.503808 351.451546 
Q 73.753808 354.951546 72.003808 358.451546 
Q 70.253808 354.951546 68.503808 351.451546 
z
" style="stroke:#000000;stroke-linecap:round;"/>
   </g>
   <g id="patch_34">
    <path d="M 75.503324 367.25014 
Q 73.753035 370.749995 72.002746 374.249851 
Q 70.253035 370.749706 68.503324 367.249562 
z
" style="stroke:#000000;stroke-linecap:round;"/>
   </g>
   <g id="patch_35">
    <path d="M 68.521898 380.596457 
Q 70.271898 377.096457 72.021898 373.596457 
Q 73.771898 377.096457 75.521898 380.596457 
z
" style="stroke:#000000;stroke-linecap:round;"/>
   </g>
   <g id="patch_36">
    <path d="M 68.521898 364.798153 
Q 70.271898 361.298153 72.021898 357.798153 
Q 73.771898 361.298153 75.521898 364.798153 
z
" style="stroke:#000000;stroke-linecap:round;"/>
   </g>
   <g id="patch_37">
    <path d="M 68.521898 348.999848 
Q 70.271898 345.499848 72.021898 341.999848 
Q 73.771898 345.499848 75.521898 348.999848 
z
" style="stroke:#000000;stroke-linecap:round;"/>
   </g>
   <g id="patch_38">
    <path d="M 68.521898 333.201543 
Q 70.271898 329.701543 72.021898 326.201543 
Q 73.771898 329.701543 75.521898 333.201543 
z
" style="stroke:#000000;stroke-linecap:round;"/>
   </g>
   <g id="patch_39">
    <path d="M 75.527589 337.093686 
Q 73.779612 340.594697 72.031636 344.095707 
Q 70.279613 340.59672 68.52759 337.097732 
z
" style="stroke:#000000;stroke-linecap:round;"/>
   </g>
   <g id="patch_40">
    <path d="M 68.538084 357.609771 
Q 70.288084 354.109771 72.038084 350.609771 
Q 73.788084 354.109771 75.538084 357.609771 
z
" style="stroke:#000000;stroke-linecap:round;"/>
   </g>
   <g id="patch_41">
    <path d="M 75.542845 348.038711 
Q 73.792845 351.538711 72.042845 355.038711 
Q 70.292845 351.538711 68.542845 348.038711 
z
" style="stroke:#000000;stroke-linecap:round;"/>
   </g>
   <g id="patch_42">
    <path d="M 75.542845 363.837016 
Q 73.792845 367.337016 72.042845 370.837016 
Q 70.292845 367.337016 68.542845 363.837016 
z
" style="stroke:#000000;stroke-linecap:round;"/>
   </g>
   <g id="patch_43">
    <path d="M 68.549773 377.974758 
Q 70.300029 374.474886 72.050285 370.975014 
Q 73.800029 374.475142 75.549773 377.97527 
z
" style="stroke:#000000;stroke-linecap:round;"/>
   </g>
   <g id="patch_44">
    <path d="M 68.550928 362.176453 
Q 70.301184 358.676581 72.051439 355.176709 
Q 73.801184 358.676837 75.550928 362.176965 
z
" style="stroke:#000000;stroke-linecap:round;"/>
   </g>
   <g id="patch_45">
    <path d="M 68.556103 346.376611 
Q 70.307897 342.877508 72.05969 339.378406 
Q 73.807896 342.879302 75.556103 346.380198 
z
" style="stroke:#000000;stroke-linecap:round;"/>
   </g>
   <g id="patch_46">
    <path d="M 68.5642 330.578307 
Q 70.315993 327.079205 72.067787 323.580102 
Q 73.815993 327.080998 75.564199 330.581895 
z
" style="stroke:#000000;stroke-linecap:round;"/>
   </g>
   <g id="patch_47">
    <path d="M 75.572535 321.95978 
Q 73.824563 325.460793 72.076591 328.961806 
Q 70.324564 325.462821 68.572536 321.963835 
z
" style="stroke:#000000;stroke-linecap:round;"/>
   </g>
   <g id="patch_48">
    <path d="M 75.579083 337.75557 
Q 73.833629 341.257839 72.088174 344.760108 
Q 70.333632 341.262384 68.579089 337.764659 
z
" style="stroke:#000000;stroke-linecap:round;"/>
   </g>
   <g id="patch_49">
    <path d="M 75.594202 353.549118 
Q 73.853518 357.053761 72.112834 360.558403 
Q 70.35353 357.063071 68.594227 353.567738 
z
" style="stroke:#000000;stroke-linecap:round;"/>
   </g>
   <g id="patch_50">
    <path d="M 75.635784 369.342833 
Q 73.899689 372.849752 72.163595 376.35667 
Q 70.399717 372.863643 68.635839 369.370617 
z
" style="stroke:#000000;stroke-linecap:round;"/>
   </g>
   <g id="patch_51">
    <path d="M 68.79843 373.425013 
Q 70.557687 369.929658 72.316945 366.434302 
Q 74.057675 369.938921 75.798405 373.443541 
z
" style="stroke:#000000;stroke-linecap:round;"/>
   </g>
   <g id="patch_52">
    <path d="M 68.840244 357.626734 
Q 70.599501 354.131378 72.358759 350.636022 
Q 74.099489 354.140641 75.840219 357.645261 
z
" style="stroke:#000000;stroke-linecap:round;"/>
   </g>
   <g id="patch_53">
    <path d="M 75.940995 344.144663 
Q 74.231959 347.664847 72.522923 351.185031 
Q 70.732197 347.705692 68.941471 344.226353 
z
" style="stroke:#000000;stroke-linecap:round;"/>
   </g>
   <g id="patch_54">
    <path d="M 69.07573 367.058079 
Q 70.915858 363.604612 72.755986 360.151146 
Q 74.414682 363.695328 76.073378 367.23951 
z
" style="stroke:#000000;stroke-linecap:round;"/>
   </g>
   <g id="patch_55">
    <path d="M 76.465936 355.57247 
Q 75.044526 359.218302 73.623116 362.864134 
Q 71.559296 359.539507 69.495477 356.214879 
z
" style="stroke:#000000;stroke-linecap:round;"/>
   </g>
   <g id="patch_56">
    <path d="M 70.245041 351.883947 
Q 72.072029 348.423511 73.899018 344.963076 
Q 75.571173 348.500928 77.243328 352.03878 
z
" style="stroke:#000000;stroke-linecap:round;"/>
   </g>
   <g id="patch_57">
    <path d="M 70.679017 336.01274 
Q 72.578017 332.591293 74.477018 329.169847 
Q 76.074775 332.741915 77.672532 336.313984 
z
" style="stroke:#000000;stroke-linecap:round;"/>
   </g>
   <g id="patch_58">
    <path d="M 78.326539 310.703976 
Q 77.084803 314.41485 75.843066 318.125725 
Q 73.619408 314.905811 71.395751 311.685897 
z
" style="stroke:#000000;stroke-linecap:round;"/>
   </g>
   <g id="patch_59">
    <path d="M 74.319451 328.651578 
Q 76.739686 325.576686 79.159922 322.501794 
Q 80.167694 326.282917 81.175467 330.064041 
z
" style="stroke:#000000;stroke-linecap:round;"/>
   </g>
   <g id="patch_60">
    <path d="M 77.487868 313.148135 
Q 79.795939 309.98818 82.104009 306.828226 
Q 83.24713 310.570655 84.390251 314.313084 
z
" style="stroke:#000000;stroke-linecap:round;"/>
   </g>
   <g id="patch_61">
    <path d="M 80.137353 297.449806 
Q 82.445423 294.289852 84.753494 291.129897 
Q 85.896615 294.872326 87.039736 298.614755 
z
" style="stroke:#000000;stroke-linecap:round;"/>
   </g>
   <g id="patch_62">
    <path d="M 87.939975 282.687539 
Q 90.969115 280.210281 93.998255 277.733022 
Q 94.162578 281.642689 94.3269 285.552357 
z
" style="stroke:#000000;stroke-linecap:round;"/>
   </g>
   <g id="patch_63">
    <path d="M 94.151535 268.228226 
Q 96.747368 265.300061 99.343202 262.371896 
Q 100.128233 266.205462 100.913265 270.039027 
z
" style="stroke:#000000;stroke-linecap:round;"/>
   </g>
   <g id="patch_64">
    <path d="M 98.31589 252.678072 
Q 100.911724 249.749907 103.507557 246.821742 
Q 104.292589 250.655308 105.07762 254.488873 
z
" style="stroke:#000000;stroke-linecap:round;"/>
   </g>
   <g id="patch_65">
    <path d="M 103.34823 236.464513 
Q 106.397462 234.012028 109.446694 231.559543 
Q 109.579143 235.470419 109.711592 239.381296 
z
" style="stroke:#000000;stroke-linecap:round;"/>
   </g>
   <g id="patch_66">
    <path d="M 116.251813 212.396965 
Q 116.38137 216.307938 116.510927 220.218912 
Q 113.304414 217.975974 110.097901 215.733035 
z
" style="stroke:#000000;stroke-linecap:round;"/>
   </g>
   <g id="patch_67">
    <path d="M 117.730797 233.821152 
Q 121.515063 232.825248 125.29933 231.829344 
Q 123.825493 235.4543 122.351657 239.079256 
z
" style="stroke:#000000;stroke-linecap:round;"/>
   </g>
   <g id="patch_68">
    <path d="M 135.473891 217.800134 
Q 138.245321 220.562683 141.016752 223.325231 
Q 137.143855 223.884846 133.270958 224.444461 
z
" style="stroke:#000000;stroke-linecap:round;"/>
   </g>
   <g id="patch_69">
    <path d="M 151.164605 223.310067 
Q 154.910516 222.17841 158.656427 221.046753 
Q 157.314206 224.722477 155.971985 228.3982 
z
" style="stroke:#000000;stroke-linecap:round;"/>
   </g>
   <g id="patch_70">
    <path d="M 164.747591 210.72236 
Q 168.429968 209.398503 172.112345 208.074645 
Q 170.962004 211.814861 169.811664 215.555077 
z
" style="stroke:#000000;stroke-linecap:round;"/>
   </g>
   <g id="patch_71">
    <path d="M 177.450979 197.410823 
Q 181.133357 196.086966 184.815734 194.763108 
Q 183.665393 198.503325 182.515053 202.243541 
z
" style="stroke:#000000;stroke-linecap:round;"/>
   </g>
   <g id="patch_72">
    <path d="M 193.801774 184.230369 
Q 197.710749 184.050315 201.619723 183.870261 
Q 199.418381 187.105473 197.21704 190.340685 
z
" style="stroke:#000000;stroke-linecap:round;"/>
   </g>
   <g id="patch_73">
    <path d="M 216.391463 183.047142 
Q 219.020358 185.945661 221.649253 188.84418 
Q 217.753101 189.208184 213.856949 189.572189 
z
" style="stroke:#000000;stroke-linecap:round;"/>
   </g>
   <g id="patch_74">
    <path d="M 237.323428 190.144479 
Q 240.169289 192.830289 243.01515 195.5161 
Q 239.158985 196.181302 235.30282 196.846504 
z
" style="stroke:#000000;stroke-linecap:round;"/>
   </g>
   <g id="patch_75">
    <path d="M 259.029801 196.216902 
Q 261.974313 198.794178 264.918824 201.371454 
Q 261.090297 202.180698 257.261769 202.989942 
z
" style="stroke:#000000;stroke-linecap:round;"/>
   </g>
   <g id="patch_76">
    <path d="M 275.738773 194.766464 
Q 279.643633 194.512359 283.548492 194.258254 
Q 281.40886 197.534605 279.269229 200.810956 
z
" style="stroke:#000000;stroke-linecap:round;"/>
   </g>
   <g id="patch_77">
    <path d="M 297.010537 185.351841 
Q 300.624621 186.852139 304.238705 188.352438 
Q 300.870016 190.343526 297.501326 192.334614 
z
" style="stroke:#000000;stroke-linecap:round;"/>
   </g>
   <g id="patch_78">
    <path d="M 317.188473 183.713985 
Q 321.075142 183.259778 324.961811 182.805571 
Q 322.993176 186.18743 321.02454 189.56929 
z
" style="stroke:#000000;stroke-linecap:round;"/>
   </g>
   <g id="patch_79">
    <path d="M 334.050716 172.666791 
Q 337.937385 172.212584 341.824054 171.758377 
Q 339.855418 175.140236 337.886783 178.522096 
z
" style="stroke:#000000;stroke-linecap:round;"/>
   </g>
   <g id="patch_80">
    <path d="M 349.412886 161.401235 
Q 353.23314 160.553792 357.053395 159.70635 
Q 355.439196 163.271018 353.824998 166.835687 
z
" style="stroke:#000000;stroke-linecap:round;"/>
   </g>
   <g id="patch_81">
    <path d="M 370.722053 158.50276 
Q 373.159994 161.563633 375.597936 164.624505 
Q 371.686473 164.738335 367.77501 164.852165 
z
" style="stroke:#000000;stroke-linecap:round;"/>
   </g>
   <g id="patch_82">
    <path d="M 389.803335 167.819671 
Q 392.124864 170.969751 394.446393 174.11983 
Q 390.533412 174.087006 386.620431 174.054181 
z
" style="stroke:#000000;stroke-linecap:round;"/>
   </g>
   <g id="patch_83">
    <path d="M 408.216195 170.774107 
Q 412.023798 171.676694 415.8314 172.579282 
Q 412.824768 175.083811 409.818137 177.58834 
z
" style="stroke:#000000;stroke-linecap:round;"/>
   </g>
   <g id="patch_84">
    <path d="M 431.623843 161.310443 
Q 434.044902 164.384686 436.465962 167.458929 
Q 432.553932 167.551231 428.641902 167.643534 
z
" style="stroke:#000000;stroke-linecap:round;"/>
   </g>
   <g id="patch_85">
    <path d="M 446.676004 171.908549 
Q 450.462838 170.922453 454.249673 169.936357 
Q 452.766448 173.557482 451.283224 177.178607 
z
" style="stroke:#000000;stroke-linecap:round;"/>
   </g>
   <g id="patch_86">
    <path d="M 455.808005 160.995579 
Q 458.409711 158.072631 461.011416 155.149682 
Q 461.788752 158.984815 462.566088 162.819948 
z
" style="stroke:#000000;stroke-linecap:round;"/>
   </g>
   <g id="patch_87">
    <path d="M 460.004771 145.449335 
Q 462.606476 142.526386 465.208181 139.603437 
Q 465.985517 143.43857 466.762853 147.273704 
z
" style="stroke:#000000;stroke-linecap:round;"/>
   </g>
   <g id="patch_88">
    <path d="M 470.89855 136.549999 
Q 470.036875 140.367068 469.175199 144.184137 
Q 466.638549 141.204555 464.1019 138.224973 
z
" style="stroke:#000000;stroke-linecap:round;"/>
   </g>
   <g id="patch_89">
    <path d="M 473.801281 152.722008 
Q 472.274995 156.325194 470.748709 159.928381 
Q 468.781932 156.54544 466.815155 153.162499 
z
" style="stroke:#000000;stroke-linecap:round;"/>
   </g>
   <g id="patch_90">
    <path d="M 474.796513 168.506245 
Q 473.270227 172.109431 471.743941 175.712617 
Q 469.777164 172.329676 467.810387 168.946736 
z
" style="stroke:#000000;stroke-linecap:round;"/>
   </g>
   <g id="patch_91">
    <path d="M 473.940554 176.150049 
Q 475.161531 172.432293 476.382508 168.714536 
Q 478.624127 171.921972 480.865746 175.129408 
z
" style="stroke:#000000;stroke-linecap:round;"/>
   </g>
   <g id="patch_92">
    <path d="M 472.027819 160.164306 
Q 473.539062 156.554784 475.050304 152.945263 
Q 477.031176 156.31997 479.012048 159.694677 
z
" style="stroke:#000000;stroke-linecap:round;"/>
   </g>
   <g id="patch_93">
    <path d="M 473.511851 147.020949 
Q 473.020856 150.903142 472.52986 154.785335 
Q 469.718703 152.063223 466.907546 149.34111 
z
" style="stroke:#000000;stroke-linecap:round;"/>
   </g>
   <g id="patch_94">
    <path d="M 478.914425 162.399293 
Q 478.423429 166.281486 477.932434 170.16368 
Q 475.121276 167.441567 472.310119 164.719455 
z
" style="stroke:#000000;stroke-linecap:round;"/>
   </g>
   <g id="patch_95">
    <path d="M 460.936618 176.219919 
Q 458.168061 173.454491 455.399504 170.689063 
Q 459.27298 170.133475 463.146457 169.577886 
z
" style="stroke:#000000;stroke-linecap:round;"/>
   </g>
   <g id="patch_96">
    <path d="M 445.681117 165.113247 
Q 448.900618 167.337503 452.120119 169.561759 
Q 448.409014 170.802806 444.697908 172.043853 
z
" style="stroke:#000000;stroke-linecap:round;"/>
   </g>
   <g id="patch_97">
    <path d="M 457.909899 168.670469 
Q 459.508118 165.098607 461.106336 161.526745 
Q 463.004895 164.948437 464.903453 168.370129 
z
" style="stroke:#000000;stroke-linecap:round;"/>
   </g>
   <g id="patch_98">
    <path d="M 463.834968 156.180696 
Q 461.279732 159.144354 458.724497 162.108013 
Q 457.886711 158.285629 457.048926 154.463246 
z
" style="stroke:#000000;stroke-linecap:round;"/>
   </g>
   <g id="patch_99">
    <path d="M 460.813336 171.383009 
Q 458.590678 174.603614 456.36802 177.824218 
Q 455.125131 174.113729 453.882242 170.40324 
z
" style="stroke:#000000;stroke-linecap:round;"/>
   </g>
   <g id="patch_100">
    <path d="M 454.129284 171.405807 
Q 452.91533 175.125863 451.701376 178.845919 
Q 449.453704 175.642722 447.206031 172.439525 
z
" style="stroke:#000000;stroke-linecap:round;"/>
   </g>
   <g id="patch_101">
    <path d="M 456.47644 187.125704 
Q 455.262486 190.84576 454.048532 194.565816 
Q 451.80086 191.362619 449.553187 188.159422 
z
" style="stroke:#000000;stroke-linecap:round;"/>
   </g>
   <g id="patch_102">
    <path d="M 449.343985 191.071745 
Q 450.193747 187.252006 451.043508 183.432267 
Q 453.589442 186.403919 456.135377 189.375572 
z
" style="stroke:#000000;stroke-linecap:round;"/>
   </g>
   <g id="patch_103">
    <path d="M 454.638847 173.816504 
Q 450.773064 174.423312 446.90728 175.030119 
Q 448.741304 171.573408 450.575328 168.116696 
z
" style="stroke:#000000;stroke-linecap:round;"/>
   </g>
   <g id="patch_104">
    <path d="M 430.90996 180.400388 
Q 433.859183 182.972271 436.808406 185.544154 
Q 432.981366 186.360403 429.154326 187.176652 
z
" style="stroke:#000000;stroke-linecap:round;"/>
   </g>
   <g id="patch_105">
    <path d="M 443.532291 192.832998 
Q 442.069733 196.462519 440.607174 200.09204 
Q 438.581092 196.74428 436.555011 193.39652 
z
" style="stroke:#000000;stroke-linecap:round;"/>
   </g>
   <g id="patch_106">
    <path d="M 438.791936 204.788756 
Q 441.909668 202.423963 445.0274 200.05917 
Q 445.048596 203.972231 445.069791 207.885293 
z
" style="stroke:#000000;stroke-linecap:round;"/>
   </g>
   <g id="patch_107">
    <path d="M 436.901115 195.146018 
Q 434.825998 191.82843 432.750881 188.510843 
Q 436.650021 188.841302 440.549162 189.171761 
z
" style="stroke:#000000;stroke-linecap:round;"/>
   </g>
   <g id="patch_108">
    <path d="M 420.93926 182.839724 
Q 421.784786 179.019045 422.630312 175.198366 
Q 425.17954 178.167194 427.728767 181.136022 
z
" style="stroke:#000000;stroke-linecap:round;"/>
   </g>
   <g id="patch_109">
    <path d="M 417.029795 167.259915 
Q 417.875321 163.439236 418.720847 159.618558 
Q 421.270075 162.587386 423.819302 165.556214 
z
" style="stroke:#000000;stroke-linecap:round;"/>
   </g>
   <g id="patch_110">
    <path d="M 420.019353 167.148479 
Q 417.506224 170.147926 414.993095 173.147373 
Q 414.101415 169.337202 413.209734 165.52703 
z
" style="stroke:#000000;stroke-linecap:round;"/>
   </g>
   <g id="patch_111">
    <path d="M 416.85838 183.375894 
Q 413.999992 186.048368 411.141604 188.720842 
Q 410.718658 184.830647 410.295711 180.940452 
z
" style="stroke:#000000;stroke-linecap:round;"/>
   </g>
   <g id="patch_112">
    <path d="M 412.118312 202.390758 
Q 408.258002 203.031461 404.397691 203.672164 
Q 406.201315 200.199494 408.004939 196.726823 
z
" style="stroke:#000000;stroke-linecap:round;"/>
   </g>
   <g id="patch_113">
    <path d="M 391.280368 205.000723 
Q 391.85214 201.129602 392.423913 197.258481 
Q 395.177746 200.038572 397.931579 202.818662 
z
" style="stroke:#000000;stroke-linecap:round;"/>
   </g>
   <g id="text_14">
    <!-- United States -->
    <defs>
     <path d="M 8.6875 72.90625 
L 18.609375 72.90625 
L 18.609375 28.609375 
Q 18.609375 16.890625 22.84375 11.734375 
Q 27.09375 6.59375 36.625 6.59375 
Q 46.09375 6.59375 50.34375 11.734375 
Q 54.59375 16.890625 54.59375 28.609375 
L 54.59375 72.90625 
L 64.5 72.90625 
L 64.5 27.390625 
Q 64.5 13.140625 57.4375 5.859375 
Q 50.390625 -1.421875 36.625 -1.421875 
Q 22.796875 -1.421875 15.734375 5.859375 
Q 8.6875 13.140625 8.6875 27.390625 
z
" id="DejaVuSans-85"/>
     <path d="M 54.890625 33.015625 
L 54.890625 0 
L 45.90625 0 
L 45.90625 32.71875 
Q 45.90625 40.484375 42.875 44.328125 
Q 39.84375 48.1875 33.796875 48.1875 
Q 26.515625 48.1875 22.3125 43.546875 
Q 18.109375 38.921875 18.109375 30.90625 
L 18.109375 0 
L 9.078125 0 
L 9.078125 54.6875 
L 18.109375 54.6875 
L 18.109375 46.1875 
Q 21.34375 51.125 25.703125 53.5625 
Q 30.078125 56 35.796875 56 
Q 45.21875 56 50.046875 50.171875 
Q 54.890625 44.34375 54.890625 33.015625 
z
" id="DejaVuSans-110"/>
     <path d="M 9.421875 54.6875 
L 18.40625 54.6875 
L 18.40625 0 
L 9.421875 0 
z
M 9.421875 75.984375 
L 18.40625 75.984375 
L 18.40625 64.59375 
L 9.421875 64.59375 
z
" id="DejaVuSans-105"/>
     <path d="M 18.3125 70.21875 
L 18.3125 54.6875 
L 36.8125 54.6875 
L 36.8125 47.703125 
L 18.3125 47.703125 
L 18.3125 18.015625 
Q 18.3125 11.328125 20.140625 9.421875 
Q 21.96875 7.515625 27.59375 7.515625 
L 36.8125 7.515625 
L 36.8125 0 
L 27.59375 0 
Q 17.1875 0 13.234375 3.875 
Q 9.28125 7.765625 9.28125 18.015625 
L 9.28125 47.703125 
L 2.6875 47.703125 
L 2.6875 54.6875 
L 9.28125 54.6875 
L 9.28125 70.21875 
z
" id="DejaVuSans-116"/>
     <path d="M 56.203125 29.59375 
L 56.203125 25.203125 
L 14.890625 25.203125 
Q 15.484375 15.921875 20.484375 11.0625 
Q 25.484375 6.203125 34.421875 6.203125 
Q 39.59375 6.203125 44.453125 7.46875 
Q 49.3125 8.734375 54.109375 11.28125 
L 54.109375 2.78125 
Q 49.265625 0.734375 44.1875 -0.34375 
Q 39.109375 -1.421875 33.890625 -1.421875 
Q 20.796875 -1.421875 13.15625 6.1875 
Q 5.515625 13.8125 5.515625 26.8125 
Q 5.515625 40.234375 12.765625 48.109375 
Q 20.015625 56 32.328125 56 
Q 43.359375 56 49.78125 48.890625 
Q 56.203125 41.796875 56.203125 29.59375 
z
M 47.21875 32.234375 
Q 47.125 39.59375 43.09375 43.984375 
Q 39.0625 48.390625 32.421875 48.390625 
Q 24.90625 48.390625 20.390625 44.140625 
Q 15.875 39.890625 15.1875 32.171875 
z
" id="DejaVuSans-101"/>
     <path d="M 45.40625 46.390625 
L 45.40625 75.984375 
L 54.390625 75.984375 
L 54.390625 0 
L 45.40625 0 
L 45.40625 8.203125 
Q 42.578125 3.328125 38.25 0.953125 
Q 33.9375 -1.421875 27.875 -1.421875 
Q 17.96875 -1.421875 11.734375 6.484375 
Q 5.515625 14.40625 5.515625 27.296875 
Q 5.515625 40.1875 11.734375 48.09375 
Q 17.96875 56 27.875 56 
Q 33.9375 56 38.25 53.625 
Q 42.578125 51.265625 45.40625 46.390625 
z
M 14.796875 27.296875 
Q 14.796875 17.390625 18.875 11.75 
Q 22.953125 6.109375 30.078125 6.109375 
Q 37.203125 6.109375 41.296875 11.75 
Q 45.40625 17.390625 45.40625 27.296875 
Q 45.40625 37.203125 41.296875 42.84375 
Q 37.203125 48.484375 30.078125 48.484375 
Q 22.953125 48.484375 18.875 42.84375 
Q 14.796875 37.203125 14.796875 27.296875 
z
" id="DejaVuSans-100"/>
     <path id="DejaVuSans-32"/>
     <path d="M 53.515625 70.515625 
L 53.515625 60.890625 
Q 47.90625 63.578125 42.921875 64.890625 
Q 37.9375 66.21875 33.296875 66.21875 
Q 25.25 66.21875 20.875 63.09375 
Q 16.5 59.96875 16.5 54.203125 
Q 16.5 49.359375 19.40625 46.890625 
Q 22.3125 44.4375 30.421875 42.921875 
L 36.375 41.703125 
Q 47.40625 39.59375 52.65625 34.296875 
Q 57.90625 29 57.90625 20.125 
Q 57.90625 9.515625 50.796875 4.046875 
Q 43.703125 -1.421875 29.984375 -1.421875 
Q 24.8125 -1.421875 18.96875 -0.25 
Q 13.140625 0.921875 6.890625 3.21875 
L 6.890625 13.375 
Q 12.890625 10.015625 18.65625 8.296875 
Q 24.421875 6.59375 29.984375 6.59375 
Q 38.421875 6.59375 43.015625 9.90625 
Q 47.609375 13.234375 47.609375 19.390625 
Q 47.609375 24.75 44.3125 27.78125 
Q 41.015625 30.8125 33.5 32.328125 
L 27.484375 33.5 
Q 16.453125 35.6875 11.515625 40.375 
Q 6.59375 45.0625 6.59375 53.421875 
Q 6.59375 63.09375 13.40625 68.65625 
Q 20.21875 74.21875 32.171875 74.21875 
Q 37.3125 74.21875 42.625 73.28125 
Q 47.953125 72.359375 53.515625 70.515625 
z
" id="DejaVuSans-83"/>
     <path d="M 34.28125 27.484375 
Q 23.390625 27.484375 19.1875 25 
Q 14.984375 22.515625 14.984375 16.5 
Q 14.984375 11.71875 18.140625 8.90625 
Q 21.296875 6.109375 26.703125 6.109375 
Q 34.1875 6.109375 38.703125 11.40625 
Q 43.21875 16.703125 43.21875 25.484375 
L 43.21875 27.484375 
z
M 52.203125 31.203125 
L 52.203125 0 
L 43.21875 0 
L 43.21875 8.296875 
Q 40.140625 3.328125 35.546875 0.953125 
Q 30.953125 -1.421875 24.3125 -1.421875 
Q 15.921875 -1.421875 10.953125 3.296875 
Q 6 8.015625 6 15.921875 
Q 6 25.140625 12.171875 29.828125 
Q 18.359375 34.515625 30.609375 34.515625 
L 43.21875 34.515625 
L 43.21875 35.40625 
Q 43.21875 41.609375 39.140625 45 
Q 35.0625 48.390625 27.6875 48.390625 
Q 23 48.390625 18.546875 47.265625 
Q 14.109375 46.140625 10.015625 43.890625 
L 10.015625 52.203125 
Q 14.9375 54.109375 19.578125 55.046875 
Q 24.21875 56 28.609375 56 
Q 40.484375 56 46.34375 49.84375 
Q 52.203125 43.703125 52.203125 31.203125 
z
" id="DejaVuSans-97"/>
     <path d="M 44.28125 53.078125 
L 44.28125 44.578125 
Q 40.484375 46.53125 36.375 47.5 
Q 32.28125 48.484375 27.875 48.484375 
Q 21.1875 48.484375 17.84375 46.4375 
Q 14.5 44.390625 14.5 40.28125 
Q 14.5 37.15625 16.890625 35.375 
Q 19.28125 33.59375 26.515625 31.984375 
L 29.59375 31.296875 
Q 39.15625 29.25 43.1875 25.515625 
Q 47.21875 21.78125 47.21875 15.09375 
Q 47.21875 7.46875 41.1875 3.015625 
Q 35.15625 -1.421875 24.609375 -1.421875 
Q 20.21875 -1.421875 15.453125 -0.5625 
Q 10.6875 0.296875 5.421875 2 
L 5.421875 11.28125 
Q 10.40625 8.6875 15.234375 7.390625 
Q 20.0625 6.109375 24.8125 6.109375 
Q 31.15625 6.109375 34.5625 8.28125 
Q 37.984375 10.453125 37.984375 14.40625 
Q 37.984375 18.0625 35.515625 20.015625 
Q 33.0625 21.96875 24.703125 23.78125 
L 21.578125 24.515625 
Q 13.234375 26.265625 9.515625 29.90625 
Q 5.8125 33.546875 5.8125 39.890625 
Q 5.8125 47.609375 11.28125 51.796875 
Q 16.75 56 26.8125 56 
Q 31.78125 56 36.171875 55.265625 
Q 40.578125 54.546875 44.28125 53.078125 
z
" id="DejaVuSans-115"/>
    </defs>
    <g transform="translate(254.571562 45.84)scale(0.12 -0.12)">
     <use xlink:href="#DejaVuSans-85"/>
     <use x="73.193359" xlink:href="#DejaVuSans-110"/>
     <use x="136.572266" xlink:href="#DejaVuSans-105"/>
     <use x="164.355469" xlink:href="#DejaVuSans-116"/>
     <use x="203.564453" xlink:href="#DejaVuSans-101"/>
     <use x="265.087891" xlink:href="#DejaVuSans-100"/>
     <use x="328.564453" xlink:href="#DejaVuSans-32"/>
     <use x="360.351562" xlink:href="#DejaVuSans-83"/>
     <use x="423.828125" xlink:href="#DejaVuSans-116"/>
     <use x="463.037109" xlink:href="#DejaVuSans-97"/>
     <use x="524.316406" xlink:href="#DejaVuSans-116"/>
     <use x="563.525391" xlink:href="#DejaVuSans-101"/>
     <use x="625.048828" xlink:href="#DejaVuSans-115"/>
    </g>
   </g>
  </g>
  <g id="text_15">
   <!-- Virality potential -->
   <defs>
    <path d="M 28.609375 0 
L 0.78125 72.90625 
L 11.078125 72.90625 
L 34.1875 11.53125 
L 57.328125 72.90625 
L 67.578125 72.90625 
L 39.796875 0 
z
" id="DejaVuSans-86"/>
    <path d="M 41.109375 46.296875 
Q 39.59375 47.171875 37.8125 47.578125 
Q 36.03125 48 33.890625 48 
Q 26.265625 48 22.1875 43.046875 
Q 18.109375 38.09375 18.109375 28.8125 
L 18.109375 0 
L 9.078125 0 
L 9.078125 54.6875 
L 18.109375 54.6875 
L 18.109375 46.1875 
Q 20.953125 51.171875 25.484375 53.578125 
Q 30.03125 56 36.53125 56 
Q 37.453125 56 38.578125 55.875 
Q 39.703125 55.765625 41.0625 55.515625 
z
" id="DejaVuSans-114"/>
    <path d="M 9.421875 75.984375 
L 18.40625 75.984375 
L 18.40625 0 
L 9.421875 0 
z
" id="DejaVuSans-108"/>
    <path d="M 32.171875 -5.078125 
Q 28.375 -14.84375 24.75 -17.8125 
Q 21.140625 -20.796875 15.09375 -20.796875 
L 7.90625 -20.796875 
L 7.90625 -13.28125 
L 13.1875 -13.28125 
Q 16.890625 -13.28125 18.9375 -11.515625 
Q 21 -9.765625 23.484375 -3.21875 
L 25.09375 0.875 
L 2.984375 54.6875 
L 12.5 54.6875 
L 29.59375 11.921875 
L 46.6875 54.6875 
L 56.203125 54.6875 
z
" id="DejaVuSans-121"/>
    <path d="M 18.109375 8.203125 
L 18.109375 -20.796875 
L 9.078125 -20.796875 
L 9.078125 54.6875 
L 18.109375 54.6875 
L 18.109375 46.390625 
Q 20.953125 51.265625 25.265625 53.625 
Q 29.59375 56 35.59375 56 
Q 45.5625 56 51.78125 48.09375 
Q 58.015625 40.1875 58.015625 27.296875 
Q 58.015625 14.40625 51.78125 6.484375 
Q 45.5625 -1.421875 35.59375 -1.421875 
Q 29.59375 -1.421875 25.265625 0.953125 
Q 20.953125 3.328125 18.109375 8.203125 
z
M 48.6875 27.296875 
Q 48.6875 37.203125 44.609375 42.84375 
Q 40.53125 48.484375 33.40625 48.484375 
Q 26.265625 48.484375 22.1875 42.84375 
Q 18.109375 37.203125 18.109375 27.296875 
Q 18.109375 17.390625 22.1875 11.75 
Q 26.265625 6.109375 33.40625 6.109375 
Q 40.53125 6.109375 44.609375 11.75 
Q 48.6875 17.390625 48.6875 27.296875 
z
" id="DejaVuSans-112"/>
    <path d="M 30.609375 48.390625 
Q 23.390625 48.390625 19.1875 42.75 
Q 14.984375 37.109375 14.984375 27.296875 
Q 14.984375 17.484375 19.15625 11.84375 
Q 23.34375 6.203125 30.609375 6.203125 
Q 37.796875 6.203125 41.984375 11.859375 
Q 46.1875 17.53125 46.1875 27.296875 
Q 46.1875 37.015625 41.984375 42.703125 
Q 37.796875 48.390625 30.609375 48.390625 
z
M 30.609375 56 
Q 42.328125 56 49.015625 48.375 
Q 55.71875 40.765625 55.71875 27.296875 
Q 55.71875 13.875 49.015625 6.21875 
Q 42.328125 -1.421875 30.609375 -1.421875 
Q 18.84375 -1.421875 12.171875 6.21875 
Q 5.515625 13.875 5.515625 27.296875 
Q 5.515625 40.765625 12.171875 48.375 
Q 18.84375 56 30.609375 56 
z
" id="DejaVuSans-111"/>
   </defs>
   <g transform="translate(246.544531 414.72)scale(0.1 -0.1)">
    <use xlink:href="#DejaVuSans-86"/>
    <use x="68.376953" xlink:href="#DejaVuSans-105"/>
    <use x="96.160156" xlink:href="#DejaVuSans-114"/>
    <use x="137.273438" xlink:href="#DejaVuSans-97"/>
    <use x="198.552734" xlink:href="#DejaVuSans-108"/>
    <use x="226.335938" xlink:href="#DejaVuSans-105"/>
    <use x="254.119141" xlink:href="#DejaVuSans-116"/>
    <use x="293.328125" xlink:href="#DejaVuSans-121"/>
    <use x="352.507812" xlink:href="#DejaVuSans-32"/>
    <use x="384.294922" xlink:href="#DejaVuSans-112"/>
    <use x="447.771484" xlink:href="#DejaVuSans-111"/>
    <use x="508.953125" xlink:href="#DejaVuSans-116"/>
    <use x="548.162109" xlink:href="#DejaVuSans-101"/>
    <use x="609.685547" xlink:href="#DejaVuSans-110"/>
    <use x="673.064453" xlink:href="#DejaVuSans-116"/>
    <use x="712.273438" xlink:href="#DejaVuSans-105"/>
    <use x="740.056641" xlink:href="#DejaVuSans-97"/>
    <use x="801.335938" xlink:href="#DejaVuSans-108"/>
   </g>
  </g>
  <g id="text_16">
   <!-- Air volume loss -->
   <defs>
    <path d="M 34.1875 63.1875 
L 20.796875 26.90625 
L 47.609375 26.90625 
z
M 28.609375 72.90625 
L 39.796875 72.90625 
L 67.578125 0 
L 57.328125 0 
L 50.6875 18.703125 
L 17.828125 18.703125 
L 11.1875 0 
L 0.78125 0 
z
" id="DejaVuSans-65"/>
    <path d="M 2.984375 54.6875 
L 12.5 54.6875 
L 29.59375 8.796875 
L 46.6875 54.6875 
L 56.203125 54.6875 
L 35.6875 0 
L 23.484375 0 
z
" id="DejaVuSans-118"/>
    <path d="M 8.5 21.578125 
L 8.5 54.6875 
L 17.484375 54.6875 
L 17.484375 21.921875 
Q 17.484375 14.15625 20.5 10.265625 
Q 23.53125 6.390625 29.59375 6.390625 
Q 36.859375 6.390625 41.078125 11.03125 
Q 45.3125 15.671875 45.3125 23.6875 
L 45.3125 54.6875 
L 54.296875 54.6875 
L 54.296875 0 
L 45.3125 0 
L 45.3125 8.40625 
Q 42.046875 3.421875 37.71875 1 
Q 33.40625 -1.421875 27.6875 -1.421875 
Q 18.265625 -1.421875 13.375 4.4375 
Q 8.5 10.296875 8.5 21.578125 
z
M 31.109375 56 
z
" id="DejaVuSans-117"/>
    <path d="M 52 44.1875 
Q 55.375 50.25 60.0625 53.125 
Q 64.75 56 71.09375 56 
Q 79.640625 56 84.28125 50.015625 
Q 88.921875 44.046875 88.921875 33.015625 
L 88.921875 0 
L 79.890625 0 
L 79.890625 32.71875 
Q 79.890625 40.578125 77.09375 44.375 
Q 74.3125 48.1875 68.609375 48.1875 
Q 61.625 48.1875 57.5625 43.546875 
Q 53.515625 38.921875 53.515625 30.90625 
L 53.515625 0 
L 44.484375 0 
L 44.484375 32.71875 
Q 44.484375 40.625 41.703125 44.40625 
Q 38.921875 48.1875 33.109375 48.1875 
Q 26.21875 48.1875 22.15625 43.53125 
Q 18.109375 38.875 18.109375 30.90625 
L 18.109375 0 
L 9.078125 0 
L 9.078125 54.6875 
L 18.109375 54.6875 
L 18.109375 46.1875 
Q 21.1875 51.21875 25.484375 53.609375 
Q 29.78125 56 35.6875 56 
Q 41.65625 56 45.828125 52.96875 
Q 50 49.953125 52 44.1875 
z
" id="DejaVuSans-109"/>
   </defs>
   <g transform="translate(30.638438 254.224219)rotate(-90)scale(0.1 -0.1)">
    <use xlink:href="#DejaVuSans-65"/>
    <use x="68.408203" xlink:href="#DejaVuSans-105"/>
    <use x="96.191406" xlink:href="#DejaVuSans-114"/>
    <use x="137.304688" xlink:href="#DejaVuSans-32"/>
    <use x="169.091797" xlink:href="#DejaVuSans-118"/>
    <use x="228.271484" xlink:href="#DejaVuSans-111"/>
    <use x="289.453125" xlink:href="#DejaVuSans-108"/>
    <use x="317.236328" xlink:href="#DejaVuSans-117"/>
    <use x="380.615234" xlink:href="#DejaVuSans-109"/>
    <use x="478.027344" xlink:href="#DejaVuSans-101"/>
    <use x="539.550781" xlink:href="#DejaVuSans-32"/>
    <use x="571.337891" xlink:href="#DejaVuSans-108"/>
    <use x="599.121094" xlink:href="#DejaVuSans-111"/>
    <use x="660.302734" xlink:href="#DejaVuSans-115"/>
    <use x="712.402344" xlink:href="#DejaVuSans-115"/>
   </g>
  </g>
 </g>
 <defs>
  <clipPath id="p59c509b868">
   <rect height="326.16" width="446.4" x="72" y="51.84"/>
  </clipPath>
 </defs>
</svg>
